<svg width="34" height="40" viewBox="0 0 34 40" fill="none" xmlns="http://www.w3.org/2000/svg">
<path d="M24.4 0C25.1731 0.534984 25.2049 0.973001 24.5238 1.6551C23.8895 2.28873 23.2569 2.92235 22.6043 3.57603C25.312 5.55547 26.6576 8.22203 26.7747 11.5757C20.0739 11.5757 13.4149 11.5757 6.69574 11.5757C6.79615 8.2354 8.14836 5.5655 10.8628 3.57436C10.2118 2.92235 9.57755 2.28873 8.94328 1.6551C8.26216 0.973001 8.29395 0.534984 9.06712 0C9.19766 0 9.3282 0 9.45873 0C9.67629 0.160495 9.91225 0.302602 10.1047 0.488175C10.6319 0.991394 11.1406 1.513 11.6561 2.02625C12.22 2.58965 12.22 2.58799 12.943 2.28539C13.1104 2.21517 13.2811 2.15331 13.4551 2.10148C16.0123 1.33746 18.5292 1.40099 20.9893 2.49102C21.1918 2.5813 21.3106 2.53783 21.4562 2.38736C22.0738 1.75542 22.6997 1.12848 23.3356 0.51492C23.5381 0.319316 23.7841 0.170526 24.01 0C24.1389 0 24.2694 0 24.4 0ZM12.5564 8.67844C13.2459 8.6751 13.7932 8.12674 13.7948 7.43794C13.7965 6.7525 13.2459 6.19077 12.5631 6.18241C11.872 6.17405 11.2946 6.75417 11.303 7.45132C11.3113 8.13844 11.8653 8.68178 12.5564 8.67844ZM20.9057 8.67844C21.5968 8.68346 22.1524 8.14513 22.1641 7.45634C22.1775 6.75919 21.6035 6.17572 20.9107 6.18073C20.2295 6.18575 19.6739 6.74581 19.6723 7.43126C19.6723 8.12172 20.2162 8.67175 20.9057 8.67844Z" fill="url(#paint0_linear_189_465)"/>
<path d="M6.7209 13.2944C13.4066 13.2944 20.0522 13.2944 26.7631 13.2944C26.7631 13.4348 26.7631 13.5702 26.7631 13.7056C26.7631 19.0571 26.7647 24.407 26.7631 29.7585C26.7631 31.0859 26.1907 31.6493 24.8536 31.651C24.4 31.651 23.9448 31.651 23.4495 31.651C23.4411 31.8265 23.426 31.977 23.426 32.1274C23.4244 33.8461 23.4311 35.5647 23.4227 37.2834C23.416 38.6442 22.6194 39.6874 21.4094 39.9449C19.8363 40.2809 18.4205 39.0404 18.4088 37.2984C18.3971 35.5931 18.4055 33.8879 18.4055 32.1826C18.4055 32.0271 18.4055 31.8717 18.4055 31.6844C17.2959 31.6844 16.2115 31.6844 15.0668 31.6844C15.0668 31.8315 15.0668 31.982 15.0668 32.1325C15.0668 33.8511 15.0735 35.5697 15.0651 37.2884C15.0584 38.6927 14.2083 39.7476 12.928 39.9666C11.5976 40.194 10.1684 39.1458 10.0964 37.7999C10.0228 36.424 10.0579 35.0414 10.0479 33.6622C10.0429 33.0118 10.0479 32.3632 10.0479 31.6476C9.43871 31.6476 8.858 31.661 8.27896 31.6443C7.49407 31.6226 6.92507 31.1645 6.75772 30.4306C6.71421 30.2433 6.71086 30.0427 6.71086 29.8488C6.70919 24.4454 6.70919 19.0421 6.70919 13.6404C6.70417 13.5368 6.71421 13.4348 6.7209 13.2944Z" fill="url(#paint1_linear_189_465)"/>
<path d="M5.01571 21.6234C5.01571 23.5242 5.0224 25.4251 5.01404 27.326C5.00734 28.7286 4.10531 29.7785 2.7849 29.9491C1.5331 30.1096 0.259544 29.1566 0.0620684 27.9044C0.0285979 27.6871 0.00349905 27.4647 0.00349905 27.2441C0.000152003 23.4942 -0.00152316 19.7459 0.00182389 15.996C0.00349742 14.7472 0.674581 13.7775 1.76907 13.4164C3.25014 12.9299 4.93036 14.0132 4.98391 15.5697C5.04751 17.4037 5.00902 19.2394 5.01404 21.075C5.01738 21.2589 5.01738 21.4412 5.01571 21.6234Z" fill="url(#paint2_linear_189_465)"/>
<path d="M33.4657 21.6501C33.4657 23.5376 33.4724 25.4251 33.464 27.3126C33.4573 28.7286 32.5452 29.7785 31.1981 29.9524C29.9195 30.1179 28.6007 29.058 28.4769 27.7657C28.4618 27.6102 28.4551 27.453 28.4551 27.2976C28.4535 23.5226 28.4518 19.7476 28.4551 15.9709C28.4568 14.7639 29.0944 13.8093 30.122 13.4431C31.7871 12.8496 33.4523 14.0885 33.4657 15.9475C33.474 17.8484 33.4657 19.7493 33.4657 21.6501Z" fill="url(#paint3_linear_189_465)"/>
<defs>
<linearGradient id="paint0_linear_189_465" x1="33.4694" y1="18.4" x2="-1.33878" y2="18.4" gradientUnits="userSpaceOnUse">
<stop stop-color="#59B300"/>
<stop offset="1" stop-color="#61C202"/>
</linearGradient>
<linearGradient id="paint1_linear_189_465" x1="33.4694" y1="18.4" x2="-1.33878" y2="18.4" gradientUnits="userSpaceOnUse">
<stop stop-color="#59B300"/>
<stop offset="1" stop-color="#61C202"/>
</linearGradient>
<linearGradient id="paint2_linear_189_465" x1="33.4694" y1="18.4" x2="-1.33878" y2="18.4" gradientUnits="userSpaceOnUse">
<stop stop-color="#59B300"/>
<stop offset="1" stop-color="#61C202"/>
</linearGradient>
<linearGradient id="paint3_linear_189_465" x1="33.4694" y1="18.4" x2="-1.33878" y2="18.4" gradientUnits="userSpaceOnUse">
<stop stop-color="#59B300"/>
<stop offset="1" stop-color="#61C202"/>
</linearGradient>
</defs>
</svg>
