<svg width="33" height="40" viewBox="0 0 33 40" fill="none" xmlns="http://www.w3.org/2000/svg">
<path d="M27.0884 21.272C27.1081 19.7388 27.514 18.2355 28.2682 16.9021C29.0225 15.5686 30.1007 14.4482 31.4024 13.6452C30.5755 12.4601 29.4845 11.4848 28.2162 10.7968C26.9479 10.1087 25.5372 9.72694 24.0961 9.68169C21.0221 9.35791 18.0419 11.5276 16.4753 11.5276C14.8786 11.5276 12.4667 9.71384 9.8694 9.76754C8.18951 9.82203 6.55232 10.3122 5.11735 11.1904C3.68239 12.0685 2.49858 13.3046 1.68126 14.7783C-1.85925 20.9289 0.781701 29.9682 4.17311 34.9401C5.86978 37.3746 7.85287 40.094 10.4477 39.9975C12.9869 39.8919 13.9354 38.3728 17.0002 38.3728C20.0369 38.3728 20.9266 39.9975 23.5741 39.9362C26.2989 39.8919 28.0156 37.491 29.6528 35.0334C30.8719 33.2986 31.8101 31.3814 32.4324 29.3526C30.8495 28.6808 29.4986 27.5563 28.5483 26.1194C27.598 24.6824 27.0903 22.9965 27.0884 21.272ZM22.0878 6.41207C23.5735 4.62251 24.3054 2.32232 24.1281 0C21.8584 0.23925 19.7619 1.32776 18.2563 3.04865C17.5201 3.88931 16.9563 4.86734 16.597 5.9268C16.2377 6.98625 16.0901 8.10638 16.1625 9.22313C17.2978 9.23487 18.4209 8.98796 19.4473 8.50101C20.4737 8.01405 21.3764 7.29992 22.0878 6.41207Z" fill="url(#paint0_linear_189_466)"/>
<defs>
<linearGradient id="paint0_linear_189_466" x1="32.4324" y1="18.4" x2="-1.2973" y2="18.4" gradientUnits="userSpaceOnUse">
<stop stop-color="#59B300"/>
<stop offset="1" stop-color="#61C202"/>
</linearGradient>
</defs>
</svg>
