<svg width="26" height="26" viewBox="0 0 26 26" fill="none" xmlns="http://www.w3.org/2000/svg">
<path d="M24.9073 1.09317C24.451 1.09317 24.03 1.09317 23.609 1.09317C22.7282 1.09317 21.8481 1.09812 20.9673 1.09035C20.5187 1.08682 20.2793 0.781632 20.3895 0.385316C20.4615 0.126051 20.6487 0.00666085 20.898 0.00595441C22.4216 0.000302847 23.9452 -0.00181619 25.4681 0.0073676C25.815 0.00948694 25.993 0.224953 25.9965 0.601488C26.0029 1.22669 25.9986 1.8519 25.9986 2.4771C25.9986 3.32272 25.9986 4.16833 25.9986 5.01324C25.9986 5.26756 25.9329 5.48797 25.6723 5.59182C25.2916 5.7437 24.9313 5.5134 24.9122 5.09236C24.896 4.73207 24.9073 4.37037 24.9073 4.00938C24.9073 3.05144 24.9073 2.09209 24.9073 1.09317Z" fill="url(#paint0_linear_187_303)"/>
<path d="M1.09326 24.9081C1.46904 24.9081 1.81091 24.9081 2.15208 24.9081C3.11202 24.9081 4.07195 24.9032 5.03188 24.911C5.49525 24.9145 5.74954 25.2635 5.59626 25.6648C5.49172 25.9403 5.26145 26.0003 4.99798 25.9996C3.73007 25.9982 2.46217 25.9989 1.19356 25.9989C0.990838 25.9989 0.788112 26.0038 0.586095 25.9975C0.209609 25.9862 0.00618059 25.799 0.00476788 25.426C-0.00158929 23.929 -0.00158929 22.4314 0.00476788 20.9344C0.00618059 20.5741 0.233625 20.3558 0.559253 20.3629C0.884882 20.3707 1.08902 20.5861 1.09114 20.9584C1.09679 22.1558 1.09326 23.354 1.09396 24.5514C1.09326 24.6567 1.09326 24.7619 1.09326 24.9081Z" fill="url(#paint1_linear_187_303)"/>
<path d="M24.9073 24.9081C24.9073 23.6238 24.9073 22.3826 24.9073 21.1414C24.9073 21.0446 24.9031 20.9471 24.9151 20.851C24.9525 20.5522 25.1552 20.3685 25.4434 20.3636C25.7422 20.3586 25.9548 20.5487 25.9923 20.8588C26.0008 20.928 25.9986 20.9994 25.9986 21.07C25.9986 22.4794 25.9993 23.888 25.9986 25.2974C25.9979 25.8272 25.8284 25.9996 25.3064 25.9996C23.8711 26.0003 22.4358 26.0017 21.0005 25.9989C20.5152 25.9982 20.2496 25.6619 20.4029 25.2501C20.5103 24.9597 20.7533 24.9081 21.0245 24.9081C22.2133 24.9089 23.4021 24.9081 24.5909 24.9081C24.6848 24.9081 24.7802 24.9081 24.9073 24.9081Z" fill="url(#paint2_linear_187_303)"/>
<path d="M1.09338 1.09317C1.09338 2.37678 1.09338 3.6173 1.09267 4.85782C1.09267 4.96308 1.0962 5.07046 1.08066 5.1736C1.03616 5.46819 0.821431 5.64551 0.532532 5.63703C0.252816 5.62926 0.0550414 5.45547 0.0112475 5.17148C-0.000760503 5.09377 0.00135752 5.01324 0.00135752 4.93412C0.000651169 3.52547 0.000651169 2.11752 0.00135752 0.708868C0.00135752 0.164906 0.166642 0.00171608 0.714066 0.00171608C2.14019 0.00100963 3.56561 -0.00040257 4.99174 0.00242321C5.46924 0.00312966 5.74683 0.351407 5.59709 0.752668C5.49396 1.02959 5.26369 1.09176 5.00092 1.09176C3.9534 1.09247 2.90588 1.09176 1.85907 1.09176C1.61537 1.09317 1.37097 1.09317 1.09338 1.09317Z" fill="url(#paint3_linear_187_303)"/>
<path d="M4.30932 20.0457C4.37814 19.6424 4.42592 19.234 4.51977 18.8369C4.97307 16.921 6.06168 15.4271 7.64113 14.2737C8.47778 13.6628 9.40032 13.2188 10.4002 12.9371C10.4616 12.9195 10.5208 12.8952 10.6123 12.863C8.97886 11.795 8.09728 10.3368 8.20364 8.38411C8.27815 7.02087 8.87478 5.88843 9.92187 5.0094C11.8932 3.35372 14.8963 3.51832 16.718 5.57053C18.2343 7.27881 18.6126 10.9182 15.4616 12.8585C15.8273 12.988 16.1936 13.0983 16.544 13.2454C18.9658 14.2624 20.6629 15.9583 21.4547 18.4856C21.6697 19.1712 21.7379 19.8822 21.7504 20.5983C21.7567 20.9519 21.759 21.3054 21.7481 21.6584C21.7396 21.9423 21.5917 22.1239 21.3654 22.1663C21.1401 22.2088 20.9223 22.1188 20.8421 21.9158C20.7938 21.793 20.7812 21.6499 20.7795 21.5158C20.7693 20.7596 20.8012 20.0021 20.6447 19.2532C20.4349 18.248 20.018 17.3373 19.3855 16.5296C18.1553 14.9582 16.5286 14.0062 14.5738 13.6656C11.9569 13.2092 9.58516 13.7997 7.57174 15.5623C6.29032 16.6834 5.52022 18.11 5.3257 19.807C5.25518 20.4207 5.28987 21.0458 5.27167 21.6652C5.26086 22.0334 4.96966 22.2755 4.65342 22.1494C4.51635 22.0951 4.42194 21.9333 4.30875 21.8207C4.30932 21.229 4.30932 20.6374 4.30932 20.0457ZM9.1529 8.66976C9.11025 10.7502 10.8399 12.5044 12.9801 12.5519C15.0908 12.5988 16.8466 10.8939 16.8994 8.74556C16.9506 6.65093 15.2364 4.89287 13.1001 4.84875C10.9508 4.80463 9.19727 6.50216 9.1529 8.66976Z" fill="url(#paint4_linear_187_303)"/>
<defs>
<linearGradient id="paint0_linear_187_303" x1="26" y1="11.9607" x2="-1.04" y2="11.9607" gradientUnits="userSpaceOnUse">
<stop stop-color="#59B300"/>
<stop offset="1" stop-color="#61C202"/>
</linearGradient>
<linearGradient id="paint1_linear_187_303" x1="26" y1="11.9607" x2="-1.04" y2="11.9607" gradientUnits="userSpaceOnUse">
<stop stop-color="#59B300"/>
<stop offset="1" stop-color="#61C202"/>
</linearGradient>
<linearGradient id="paint2_linear_187_303" x1="26" y1="11.9607" x2="-1.04" y2="11.9607" gradientUnits="userSpaceOnUse">
<stop stop-color="#59B300"/>
<stop offset="1" stop-color="#61C202"/>
</linearGradient>
<linearGradient id="paint3_linear_187_303" x1="26" y1="11.9607" x2="-1.04" y2="11.9607" gradientUnits="userSpaceOnUse">
<stop stop-color="#59B300"/>
<stop offset="1" stop-color="#61C202"/>
</linearGradient>
<linearGradient id="paint4_linear_187_303" x1="26" y1="11.9607" x2="-1.04" y2="11.9607" gradientUnits="userSpaceOnUse">
<stop stop-color="#59B300"/>
<stop offset="1" stop-color="#61C202"/>
</linearGradient>
</defs>
</svg>
