<svg width="26" height="26" viewBox="0 0 26 26" fill="none" xmlns="http://www.w3.org/2000/svg">
<path d="M25.9973 17.5074C25.9919 17.4862 25.9859 17.4643 25.9805 17.4425C25.969 17.4001 25.9583 17.3598 25.9529 17.3209C25.5202 14.1606 23.8027 11.9648 20.8489 10.7948C20.7345 10.7497 20.6201 10.7121 20.5097 10.6759C20.4909 10.6698 20.4727 10.6643 20.4545 10.6582C20.4741 10.54 20.4943 10.4239 20.5151 10.3091C20.5696 9.99837 20.6214 9.70468 20.6484 9.40211C20.9505 5.9331 19.0231 2.74277 15.8519 1.46281C15.3701 1.26884 14.8505 1.16092 14.3478 1.05642C14.1876 1.02295 14.0275 0.99017 13.8693 0.95397C13.7361 0.923918 13.6055 0.94714 13.5019 1.01954C13.3969 1.0933 13.3255 1.2142 13.3067 1.3508C13.2683 1.62195 13.4245 1.83232 13.7139 1.89925C13.7441 1.90608 13.7751 1.91086 13.8061 1.91565C13.833 1.91974 13.8599 1.92384 13.8868 1.92999C14.0302 1.96414 14.1769 1.99487 14.3182 2.02424C14.6271 2.08845 14.9461 2.1547 15.2415 2.26057C18.1516 3.3083 19.9814 6.2227 19.6914 9.34883C19.6665 9.61725 19.6167 9.88021 19.5642 10.1582C19.546 10.2545 19.5272 10.3515 19.5097 10.4492C18.2579 10.2777 17.1111 10.3665 16.0067 10.7217C14.8936 11.0796 13.8814 11.6875 12.9971 12.5303C12.1101 11.6806 11.1282 11.0885 9.99961 10.7224C8.90802 10.3679 7.76595 10.277 6.51015 10.4444C6.50611 10.4328 6.50274 10.4218 6.50005 10.4116C6.03771 8.71431 6.29142 6.83809 7.1966 5.26239C8.10716 3.67781 9.60456 2.52148 11.3052 2.08981C11.4762 2.0461 11.6552 2.01468 11.8288 1.98326C11.9385 1.96414 12.0522 1.94365 12.164 1.92043C12.4486 1.86169 12.6236 1.63834 12.5893 1.37743C12.5543 1.11243 12.3423 0.948507 12.0489 0.960801C11.9896 0.963533 11.9271 0.969679 11.8631 0.979241C9.99221 1.26337 8.29694 2.23666 7.08825 3.72016C5.87888 5.20433 5.25771 7.07715 5.33981 8.99298C5.35731 9.39391 5.41384 9.8003 5.46903 10.1923C5.49124 10.3488 5.51344 10.5093 5.53363 10.6691C5.51412 10.6759 5.49325 10.6827 5.47239 10.6889C3.05568 11.4163 1.20899 13.2413 0.405434 15.696C-0.398792 18.1521 0.00500334 20.7373 1.51385 22.7891C1.82881 23.218 2.10339 23.16 2.27837 23.0356C2.38672 22.9578 2.45066 22.8615 2.46883 22.7488C2.49373 22.5944 2.43114 22.4162 2.2777 22.2037L2.26222 22.1833C1.02795 20.4716 0.64973 18.3195 1.22514 16.278C1.80055 14.2364 3.24411 12.6122 5.1857 11.8213C5.35462 11.7523 5.53296 11.6943 5.70592 11.6376C5.75909 11.6205 5.81293 11.6028 5.86609 11.585C6.85203 13.8881 8.5372 15.4351 10.8765 16.1858C10.8624 16.2609 10.8489 16.336 10.8355 16.4105C10.791 16.6522 10.7493 16.8804 10.7103 17.1133C10.6531 17.4575 10.7978 17.7054 11.0878 17.7615C11.2103 17.7854 11.3247 17.7635 11.419 17.6979C11.5367 17.616 11.6168 17.4705 11.6511 17.2779C11.6922 17.0498 11.7353 16.8264 11.777 16.6099C11.7884 16.5512 11.7992 16.4938 11.81 16.4385H14.1796C14.8028 17.9759 14.121 21.311 12.989 22.3096C12.9547 22.2652 12.9197 22.2201 12.8867 22.1737C12.2191 21.2441 11.8026 20.1779 11.6478 19.0038C11.6007 18.6494 11.4035 18.4649 11.106 18.4977C10.9768 18.5121 10.8698 18.5701 10.7964 18.6658C10.7076 18.7805 10.6739 18.9396 10.6988 19.1268C10.8846 20.5447 11.4055 21.824 12.2481 22.9298C12.2804 22.9721 12.3113 23.0152 12.3497 23.0671L12.351 23.0691C12.3282 23.0848 12.306 23.1012 12.2844 23.1217C10.1012 25.2404 6.66897 25.584 4.12506 23.9372C4.00392 23.8594 3.88548 23.7712 3.77039 23.6866C3.66541 23.6087 3.55706 23.5288 3.44601 23.4543C3.28315 23.3457 3.07385 23.3375 2.91233 23.4332C2.771 23.5165 2.69361 23.6647 2.7037 23.8286C2.71582 24.0103 2.85041 24.1974 2.97021 24.2937C4.29667 25.3599 5.96435 25.9412 7.68317 25.9412C7.74038 25.9412 7.79825 25.9405 7.85546 25.9398C9.6335 25.8995 11.3422 25.2377 12.666 24.0772C12.7562 23.998 12.8457 23.9174 12.9332 23.8395L13.0005 23.7794C13.016 23.7931 13.0314 23.8081 13.0469 23.8225C13.0624 23.8368 13.0779 23.8518 13.0934 23.8662C14.8808 25.4931 16.9772 26.1679 19.3232 25.8708C20.8065 25.683 22.1949 25.0539 23.3376 24.0513C24.4797 23.05 25.296 21.7468 25.6978 20.2824C25.7907 19.9437 25.8526 19.5919 25.9118 19.2525C25.9388 19.0967 25.967 18.9355 25.998 18.7785L26 17.532L25.9973 17.5074ZM11.1343 15.2446C9.16241 14.6258 7.71413 13.328 6.82578 11.3842C8.94301 11.1663 10.787 11.7783 12.3113 13.2044L11.1343 15.2446ZM12.1135 15.4474L12.9991 13.9257L13.8855 15.442C13.3175 15.5253 12.7723 15.5266 12.1135 15.4474ZM13.6863 13.2071C15.2012 11.7831 17.0485 11.1697 19.1792 11.3828C18.2774 13.3547 16.8655 14.6196 14.8687 15.2459L13.6863 13.2071ZM21.5037 24.1585C18.9242 25.571 15.7099 25.114 13.6533 23.0527C14.4212 22.0726 14.938 20.9771 15.1904 19.7961C15.4461 18.6002 15.4226 17.4179 15.117 16.1844C16.2638 15.8354 17.278 15.263 18.132 14.4816C19.0063 13.6812 19.6759 12.714 20.1228 11.6055C21.8786 11.6957 24.2825 14.1709 24.8398 16.4856C25.5713 19.5263 24.1997 22.6818 21.5037 24.1585Z" fill="url(#paint0_linear_155_1029)"/>
<defs>
<linearGradient id="paint0_linear_155_1029" x1="26" y1="12.4412" x2="-1.04" y2="12.4412" gradientUnits="userSpaceOnUse">
<stop stop-color="#59B300"/>
<stop offset="1" stop-color="#61C202"/>
</linearGradient>
</defs>
</svg>
