<svg width="26" height="22" viewBox="0 0 26 22" fill="none" xmlns="http://www.w3.org/2000/svg">
<path d="M25.999 11.4801C25.999 11.5055 25.997 11.5309 25.9934 11.5558C25.9747 11.6839 25.9572 11.8122 25.9396 11.9406L25.9395 11.9414C25.8983 12.2423 25.8571 12.5436 25.802 12.842C25.4379 14.8108 24.569 16.5342 23.235 18.0221C21.6319 19.8106 19.6616 20.9998 17.2973 21.4335C13.4076 22.1469 10.0561 21.0603 7.28603 18.2369C6.95721 17.9018 6.67361 17.521 6.39082 17.1412C6.30421 17.0249 6.21751 16.9085 6.12977 16.7937C6.0927 16.745 6.05767 16.6947 6.02466 16.6434C5.85861 16.3865 5.94493 16.0422 6.21051 15.8908C6.21338 15.8894 6.216 15.8877 6.21872 15.8861L6.22219 15.8842C6.46492 15.7461 6.77366 15.8177 6.92956 16.0498C8.74393 18.7543 11.2723 20.3255 14.5887 20.5428C17.4862 20.7322 20.0105 19.7537 22.0579 17.7001C26.0853 13.6616 25.867 7.08457 21.3953 3.34665C19.0868 1.41701 16.3924 0.707617 13.4253 1.24639C10.6335 1.75369 8.49612 3.24154 6.94276 5.58301C6.78687 5.81761 6.47711 5.89277 6.23235 5.75363C6.23083 5.75287 6.2293 5.75198 6.22778 5.75109L6.22583 5.74996L6.22321 5.74855C5.95966 5.59875 5.87181 5.25801 6.03329 5.00208C6.47152 4.30843 6.97475 3.68079 7.55923 3.11814C9.7839 0.97675 12.4463 -0.0764264 15.5312 0.00431388C17.7376 0.0622031 19.7434 0.760935 21.5232 2.07563C23.7494 3.7204 25.1743 5.89277 25.7634 8.60137C25.8243 8.88144 25.8604 9.1667 25.8966 9.45204C25.9146 9.59455 25.9326 9.73708 25.9538 9.87899C25.9619 9.93229 25.9741 9.98457 25.9863 10.0369C25.9954 10.076 26 10.1161 26 10.1563V11.4801H25.999Z" fill="url(#paint0_linear_159_26)"/>
<path d="M0.532682 10.2969C1.83925 10.2934 5.18616 10.2883 6.49527 10.2868C6.79081 10.2863 7.02999 10.5259 7.02999 10.821V10.8311C7.02999 11.1262 6.79081 11.3653 6.49578 11.3653H0.534207C0.239175 11.3653 0 11.1262 0 10.8311C0 10.5366 0.238158 10.2979 0.532682 10.2969Z" fill="url(#paint1_linear_159_26)"/>
<path d="M15.1744 3.79758H15.1541C14.8616 3.79758 14.6244 4.03421 14.6244 4.32721C14.6249 5.6287 14.6249 8.99898 14.6204 10.8052C14.6199 10.9809 14.6722 11.1018 14.7956 11.2242C15.4027 11.8277 16.316 12.7376 17.1254 13.5439C17.6802 14.0966 18.1861 14.6006 18.5111 14.924C18.7168 15.1286 19.0479 15.1296 19.2551 14.927L19.2627 14.9194C19.4729 14.7138 19.4754 14.3761 19.2678 14.1674C18.5116 13.4077 16.8049 11.6959 15.8807 10.7793C15.7487 10.6483 15.6994 10.5183 15.7 10.3355C15.705 8.67551 15.7045 5.56675 15.704 4.3267C15.704 4.03421 15.4669 3.79758 15.1744 3.79758Z" fill="url(#paint2_linear_159_26)"/>
<path d="M2.1814 7.57918C2.1814 7.29075 2.41499 7.05716 2.70342 7.05716H8.66652C8.95495 7.05716 9.18854 7.29075 9.18854 7.57918C9.18854 7.86761 8.95495 8.1012 8.66652 8.1012H2.70291C2.41499 8.1012 2.1814 7.86761 2.1814 7.57918Z" fill="url(#paint3_linear_159_26)"/>
<path d="M8.67071 14.597C8.95914 14.597 9.19273 14.3634 9.19273 14.075C9.19273 13.7865 8.95914 13.5529 8.6702 13.5529H2.70812C2.41969 13.5529 2.1861 13.7865 2.1861 14.075C2.1861 14.3634 2.41969 14.597 2.70812 14.597H8.67071Z" fill="url(#paint4_linear_159_26)"/>
<defs>
<linearGradient id="paint0_linear_159_26" x1="26" y1="9.95719" x2="-1.04" y2="9.95719" gradientUnits="userSpaceOnUse">
<stop stop-color="#59B300"/>
<stop offset="1" stop-color="#61C202"/>
</linearGradient>
<linearGradient id="paint1_linear_159_26" x1="26" y1="9.95719" x2="-1.04" y2="9.95719" gradientUnits="userSpaceOnUse">
<stop stop-color="#59B300"/>
<stop offset="1" stop-color="#61C202"/>
</linearGradient>
<linearGradient id="paint2_linear_159_26" x1="26" y1="9.95719" x2="-1.04" y2="9.95719" gradientUnits="userSpaceOnUse">
<stop stop-color="#59B300"/>
<stop offset="1" stop-color="#61C202"/>
</linearGradient>
<linearGradient id="paint3_linear_159_26" x1="26" y1="9.95719" x2="-1.04" y2="9.95719" gradientUnits="userSpaceOnUse">
<stop stop-color="#59B300"/>
<stop offset="1" stop-color="#61C202"/>
</linearGradient>
<linearGradient id="paint4_linear_159_26" x1="26" y1="9.95719" x2="-1.04" y2="9.95719" gradientUnits="userSpaceOnUse">
<stop stop-color="#59B300"/>
<stop offset="1" stop-color="#61C202"/>
</linearGradient>
</defs>
</svg>
