<svg width="44" height="36" viewBox="0 0 44 36" fill="none" xmlns="http://www.w3.org/2000/svg">
<path d="M43.2394 19.0928C43.2394 19.135 43.2361 19.1772 43.2301 19.2186C43.1991 19.4317 43.1699 19.6452 43.1407 19.8586L43.1405 19.86C43.072 20.3605 43.0034 20.8616 42.9118 21.3578C42.3062 24.6321 40.8612 27.4984 38.6426 29.9729C35.9764 32.9473 32.6997 34.9252 28.7675 35.6465C22.2984 36.833 16.7245 35.0257 12.1176 30.3301C11.5707 29.7729 11.099 29.1395 10.6287 28.5079C10.4847 28.3145 10.3405 28.1208 10.1945 27.93C10.1329 27.8489 10.0746 27.7653 10.0197 27.68C9.74357 27.2527 9.88714 26.6801 10.3288 26.4284C10.3336 26.426 10.338 26.4232 10.3425 26.4206L10.3483 26.4174C10.7519 26.1877 11.2654 26.3068 11.5247 26.6927C14.5422 31.1907 18.7471 33.8037 24.2628 34.1652C29.0817 34.4802 33.2799 32.8527 36.685 29.4375C43.383 22.7209 43.0199 11.7825 35.5829 5.56589C31.7437 2.35666 27.2626 1.17685 22.328 2.0729C17.6847 2.91659 14.1301 5.39107 11.5466 9.28521C11.2874 9.67539 10.7722 9.80038 10.3651 9.56898C10.3626 9.56771 10.3601 9.56623 10.3575 9.56476L10.3543 9.56288L10.3499 9.56053C9.91163 9.31139 9.76553 8.74471 10.0341 8.31907C10.7629 7.16543 11.5999 6.12159 12.5719 5.18585C16.2718 1.62445 20.6997 -0.127106 25.8302 0.0071745C29.4997 0.103451 32.8356 1.26553 35.7957 3.45202C39.4982 6.18747 41.8679 9.80038 42.8476 14.3051C42.949 14.7709 43.009 15.2453 43.0691 15.7199C43.0991 15.9569 43.1291 16.1939 43.1643 16.43C43.1778 16.5186 43.198 16.6055 43.2183 16.6925C43.2335 16.7575 43.2411 16.8244 43.2411 16.8911V19.0928H43.2394Z" fill="#1D1D1F"/>
<path d="M0.885914 17.125C3.0589 17.1191 8.62521 17.1107 10.8024 17.1081C11.2939 17.1073 11.6917 17.5059 11.6917 17.9966V18.0135C11.6917 18.5041 11.2939 18.9019 10.8033 18.9019H0.88845C0.397777 18.9019 0 18.5041 0 18.0135C0 17.5236 0.396085 17.1267 0.885914 17.125Z" fill="#1D1D1F"/>
<path d="M25.2368 6.31583H25.203C24.7166 6.31583 24.3222 6.70938 24.3222 7.19668C24.323 9.36121 24.323 14.9664 24.3154 17.9704C24.3146 18.2626 24.4016 18.4636 24.6068 18.6671C25.6165 19.6708 27.1355 21.1841 28.4817 22.5252C29.4043 23.4443 30.2457 24.2826 30.7863 24.8204C31.1283 25.1607 31.6789 25.1624 32.0235 24.8255L32.0362 24.8128C32.3858 24.4707 32.39 23.9091 32.0446 23.562C30.7871 22.2986 27.9486 19.4517 26.4116 17.9273C26.192 17.7094 26.1101 17.4932 26.1109 17.1892C26.1194 14.4284 26.1185 9.25818 26.1177 7.19583C26.1177 6.70938 25.7233 6.31583 25.2368 6.31583Z" fill="#1D1D1F"/>
<path d="M3.62793 12.6051C3.62793 12.1254 4.01641 11.7369 4.49611 11.7369H14.4135C14.8932 11.7369 15.2816 12.1254 15.2816 12.6051C15.2816 13.0848 14.8932 13.4733 14.4135 13.4733H4.49526C4.01641 13.4733 3.62793 13.0848 3.62793 12.6051Z" fill="#1D1D1F"/>
<path d="M14.4204 24.2765C14.9001 24.2765 15.2886 23.888 15.2886 23.4083C15.2886 22.9286 14.9001 22.5402 14.4196 22.5402H4.50392C4.02423 22.5402 3.63574 22.9286 3.63574 23.4083C3.63574 23.888 4.02423 24.2765 4.50392 24.2765H14.4204Z" fill="#1D1D1F"/>
</svg>
