<svg width="100" height="100" viewBox="0 0 100 100" fill="none" xmlns="http://www.w3.org/2000/svg">
<path fill-rule="evenodd" clip-rule="evenodd" d="M0.697059 47.3104L0.69698 47.3105L0.696959 47.3106C0.466562 47.7274 0.236117 48.1444 0 48.5578V50.511C0.239591 50.9301 0.474036 51.3527 0.708522 51.7753L0.708572 51.7754L0.708591 51.7755C1.25655 52.7632 1.80473 53.7513 2.41933 54.696C3.11466 55.7663 3.29956 56.8236 2.89069 58.0216C2.59902 58.881 2.33861 59.7534 2.0886 60.6284C1.47661 62.7795 2.01048 64.6103 3.66937 66.1051C3.73954 66.1681 3.80962 66.2313 3.87975 66.2945L3.88025 66.295L3.88088 66.2956L3.88095 66.2956C4.36741 66.7343 4.85593 67.1749 5.38816 67.5479C6.77622 68.5192 7.33873 69.8188 7.1955 71.4933C7.12413 72.314 7.15504 73.1473 7.18569 73.9734L7.18768 74.0272C7.258 75.9908 8.20594 77.4205 9.93775 78.3138C10.831 78.7747 11.7477 79.1992 12.6852 79.5612C13.9535 80.0482 14.6749 80.9389 14.99 82.241C15.2244 83.2176 15.4978 84.1915 15.8311 85.1395C16.464 86.9416 17.74 88.051 19.6229 88.413C20.4823 88.5797 21.3521 88.7307 22.2245 88.788C23.8131 88.8948 24.9928 89.5433 25.7507 90.9938C26.2012 91.8532 26.7533 92.6683 27.3341 93.4496C28.3549 94.8194 29.7456 95.5356 31.4644 95.4158C32.6623 95.3351 33.8576 95.1632 35.0374 94.947C36.1546 94.7439 37.0895 94.9939 37.9203 95.7491C38.6416 96.4054 39.3682 97.0591 40.113 97.6893C41.8761 99.1841 43.8241 99.4472 45.9309 98.4992L46.1404 98.405C46.7825 98.1164 47.4273 97.8267 48.0403 97.4862C49.345 96.7596 50.6159 96.7466 51.931 97.4705C52.5764 97.8286 53.2557 98.1267 53.9339 98.4243C54.0303 98.4666 54.1266 98.5089 54.2228 98.5513C56.1916 99.4211 58.0302 99.1841 59.6995 97.8221C60.5068 97.1632 61.2829 96.4679 62.0537 95.77C62.8819 95.02 63.8142 94.7153 64.9288 94.947C65.41 95.0464 65.8969 95.1181 66.3844 95.1899L66.3848 95.1899C66.7018 95.2366 67.0191 95.2833 67.3351 95.3377C69.7987 95.7596 71.7571 95.0017 73.1139 92.8532L73.3496 92.4805C73.7583 91.835 74.1661 91.1907 74.5592 90.5355C75.1113 89.611 75.8744 89.038 76.9733 88.9286C77.4393 88.8825 77.9028 88.8156 78.3662 88.7486L78.3663 88.7486L78.3664 88.7486C78.7395 88.6947 79.1125 88.6409 79.4864 88.5979C82.0099 88.3062 83.6949 87.0171 84.3902 84.5275C84.4999 84.134 84.6115 83.741 84.7232 83.3479L84.7237 83.3462L84.724 83.3453C84.8693 82.8338 85.0146 82.3221 85.1559 81.8087C85.4241 80.8373 85.997 80.1524 86.9371 79.7539C87.9528 79.3242 88.9685 78.8815 89.9529 78.3841C91.755 77.4726 92.7602 76.0116 92.8149 73.9621C92.841 72.9543 92.8305 71.9464 92.8071 70.9386C92.7785 69.7224 93.1639 68.725 94.1457 67.9541C94.9608 67.3109 95.7551 66.6338 96.5129 65.9202C97.901 64.6155 98.4375 63.0009 98.0234 61.1336C97.8046 60.1544 97.5234 59.1779 97.1744 58.2377C96.664 56.8627 96.9166 55.6882 97.7109 54.4694C98.3103 53.5485 98.8197 52.5681 99.3294 51.5873L99.3296 51.5869C99.5506 51.1616 99.7716 50.7362 100 50.3157V48.7531C99.7619 48.3169 99.5301 47.8767 99.2984 47.4366L99.2982 47.4361L99.2978 47.4353C98.7619 46.4173 98.2262 45.3996 97.6119 44.4327C96.9088 43.3285 96.6848 42.2529 97.1145 41.0185C97.364 40.3039 97.5766 39.5776 97.7891 38.8515L97.7893 38.851C97.823 38.7358 97.8567 38.6206 97.8906 38.5054C98.5625 36.2319 97.9349 34.3413 96.1692 32.8048L96.1074 32.751C95.464 32.1908 94.8221 31.6319 94.1483 31.112C93.1613 30.349 92.7732 29.3463 92.8071 28.1302C92.8331 27.1536 92.8462 26.177 92.8253 25.203C92.7811 23.0337 91.7159 21.5154 89.781 20.5935C88.8435 20.1456 87.8955 19.7133 86.9398 19.3096C85.9996 18.9112 85.4319 18.2237 85.1559 17.2549C85.0898 17.0216 85.0248 16.7877 84.9597 16.5537L84.9597 16.5534C84.7117 15.6617 84.4632 14.768 84.1558 13.8954C83.536 12.135 82.2886 11.0308 80.4448 10.661C79.5854 10.4891 78.7156 10.3328 77.8432 10.2807C76.2155 10.1844 75.0098 9.52292 74.2311 8.04111C73.765 7.15306 73.192 6.30928 72.5826 5.51239C71.593 4.21808 70.244 3.53838 68.6008 3.64776C67.3716 3.73109 66.145 3.90558 64.9314 4.12173C63.8116 4.32225 62.8818 4.04881 62.0563 3.29358C61.3844 2.67898 60.7021 2.07219 60.0146 1.47582C58.1812 -0.117968 56.1603 -0.425262 53.9519 0.619036C53.7567 0.711564 53.5604 0.802487 53.3638 0.893475L53.3634 0.89369C52.8521 1.13043 52.3398 1.36761 51.8451 1.63469C50.5951 2.30918 49.3789 2.29095 48.1289 1.62427C47.3268 1.19978 46.4934 0.829978 45.6574 0.470593C43.7485 -0.349741 41.9672 -0.0919248 40.3526 1.19978C39.5922 1.80656 38.8552 2.45242 38.1494 3.12431C37.2041 4.02277 36.1494 4.39257 34.8499 4.08006C34.2996 3.94768 33.7369 3.87024 33.1748 3.79288C32.9629 3.7637 32.751 3.73454 32.5399 3.70245C30.1961 3.34046 28.3054 4.05402 26.9747 6.0697C26.9141 6.16161 26.851 6.25281 26.7878 6.34418C26.6092 6.60231 26.4297 6.86182 26.3028 7.14264C25.3574 9.23905 23.834 10.4292 21.4485 10.3406C21.2105 10.3318 20.9701 10.3755 20.7297 10.4192C20.615 10.4401 20.5004 10.4609 20.386 10.4761C17.9536 10.799 16.3155 12.0699 15.628 14.4684C15.5715 14.6673 15.511 14.8657 15.4506 15.064C15.3021 15.551 15.1536 16.0383 15.0629 16.5361C14.7712 18.1403 13.8415 19.1195 12.3337 19.6664C11.4508 19.9867 10.594 20.3982 9.76849 20.8461C8.16167 21.7211 7.28144 23.0988 7.19811 24.94C7.15644 25.8176 7.12258 26.7005 7.1955 27.5729C7.33613 29.2474 6.77361 30.5443 5.38816 31.5183C4.78699 31.9421 4.2371 32.4451 3.69218 32.9436L3.59905 33.0287C2.01047 34.4845 1.50003 36.2684 2.06255 38.344C2.30214 39.2216 2.56257 40.094 2.86466 40.9508C3.31259 42.2165 3.11205 43.3285 2.36985 44.4561C1.76571 45.3769 1.23151 46.3434 0.697059 47.3104ZM86.9215 22.5206C89.9607 23.8019 90.0076 23.8749 89.8904 27.5755C89.4945 30.1042 90.7315 32.2709 93.0571 34.0366C95.604 35.9741 95.7056 36.245 94.6066 39.206C93.5728 41.9925 93.8879 44.4093 95.6744 46.8078C97.6171 49.4172 97.6067 49.6698 95.6613 52.2871C93.9035 54.6517 93.5623 57.0398 94.578 59.8003C95.703 62.855 95.6353 63.0816 93.0285 65.0478C90.6768 66.8213 89.6846 69.0349 89.8799 71.9621C90.0935 75.1653 89.9581 75.384 86.9762 76.4986C84.1897 77.5403 82.5907 79.3815 81.9552 82.3009C81.2781 85.4207 80.9448 85.6343 77.7755 85.8504C75.0202 86.0379 73.0149 87.2099 71.6321 89.663C69.8534 92.8194 69.7648 92.8376 66.1241 92.1397C63.5407 91.6449 61.4287 92.2699 59.5172 94.0798C56.8244 96.6294 56.7437 96.6372 53.4545 94.9444C51.1133 93.7387 48.9101 93.7465 46.5715 94.9392C43.2668 96.6242 43.1834 96.6294 40.5063 94.0876C38.5296 92.21 36.3473 91.624 33.7092 92.1787C30.3367 92.8871 30.1622 92.8428 28.4955 89.8401C27.058 87.2489 24.9824 85.9182 22.0553 85.8504C21.9251 85.8478 21.7948 85.8296 21.6672 85.8114C19.0396 85.452 18.8286 85.2593 18.1411 82.6967C18.0357 82.3058 17.9201 81.918 17.8046 81.53L17.8045 81.5298C17.7346 81.2949 17.6646 81.06 17.5968 80.8243C17.0994 79.0899 16.0056 77.8737 14.3754 77.1263C13.9782 76.9451 13.5797 76.7665 13.1813 76.5878C12.5716 76.3144 11.9619 76.041 11.3571 75.759C10.5445 75.3814 10.1096 74.7408 10.1096 73.8319C10.1096 73.4998 10.1103 73.1679 10.111 72.8362C10.1127 72.0622 10.1143 71.2888 10.107 70.5141C10.0888 68.6495 9.39087 67.1025 7.94292 65.9046C7.62141 65.6384 7.30602 65.3646 6.99066 65.0908C6.59333 64.7458 6.19603 64.4008 5.7866 64.0712C4.82824 63.3004 4.57825 62.355 4.95326 61.2014C5.25535 60.2742 5.54182 59.3419 5.81526 58.407C6.32829 56.6518 6.09912 55.0007 5.08347 53.4642C4.87282 53.1457 4.66695 52.8244 4.46118 52.5032L4.46115 52.5032L4.46098 52.5029L4.46089 52.5028C4.14017 52.0022 3.81971 51.5021 3.48186 51.0136C2.78393 50.0057 2.80476 49.0292 3.49488 48.0291C3.8302 47.5441 4.15026 47.0488 4.47032 46.5536C4.66232 46.2565 4.85432 45.9594 5.04961 45.6645C6.10693 44.0707 6.33871 42.3623 5.7814 40.5394C5.71668 40.3274 5.65183 40.1156 5.58699 39.9039L5.5864 39.9019L5.58636 39.9018C5.35661 39.1514 5.12703 38.4016 4.90378 37.6487C4.60429 36.6408 4.8543 35.7944 5.66682 35.1121C6.03318 34.805 6.39429 34.4926 6.7554 34.1801C7.15665 33.833 7.5579 33.4859 7.96636 33.1459C9.41171 31.9428 10.0966 30.3906 10.1096 28.5286C10.1175 27.4869 10.1122 26.4478 10.094 25.4061C10.0758 24.3306 10.594 23.6248 11.5498 23.2004C11.8219 23.0805 12.0929 22.9586 12.3637 22.8368C12.9225 22.5856 13.4807 22.3346 14.0472 22.1014C15.9926 21.3019 17.2036 19.8774 17.7374 17.8539C17.8494 17.4294 17.9673 17.0068 18.0851 16.5842C18.203 16.1617 18.3208 15.7392 18.4328 15.3147C18.7453 14.1298 19.524 13.5308 20.7271 13.4006C21.3104 13.3373 21.8926 13.2536 22.4751 13.1699L22.4752 13.1699L22.4752 13.1699C22.8264 13.1195 23.1776 13.069 23.5293 13.023C25.3522 12.786 26.7585 11.898 27.7429 10.3458C27.8641 10.1554 27.9856 9.96515 28.1072 9.77496L28.1072 9.77487L28.1072 9.77484C28.529 9.11477 28.9506 8.45504 29.3549 7.78589C29.9695 6.77024 30.855 6.40564 32.0061 6.59314C32.468 6.6695 32.9317 6.73864 33.3954 6.80779L33.3955 6.8078L33.3955 6.8078C33.8966 6.88251 34.3977 6.95722 34.8967 7.04107C36.6416 7.33275 38.1885 6.89524 39.5375 5.77021C40.1961 5.22074 40.8405 4.65245 41.4842 4.08481C41.6704 3.92069 41.8564 3.75662 42.0428 3.59307C42.8344 2.89774 43.6991 2.76492 44.66 3.22066C45.1718 3.46307 45.6874 3.69777 46.2026 3.9323C46.634 4.12863 47.065 4.32485 47.4934 4.52539C49.194 5.32228 50.8893 5.28322 52.5821 4.50455C52.7636 4.4212 52.9462 4.33916 53.1289 4.25706C53.7168 3.99285 54.3064 3.72791 54.8686 3.41598C56.202 2.67638 57.3505 2.88732 58.4 3.94464C58.5731 4.11779 58.7584 4.27878 58.9439 4.43989C59.1517 4.62045 59.3597 4.80118 59.551 4.99935C61.4183 6.9343 63.6579 7.50724 66.2439 6.89264C66.4684 6.83884 66.6981 6.80486 66.9275 6.77094C67.0202 6.75724 67.1127 6.74355 67.2049 6.72857C69.5305 6.35877 69.8951 6.52283 71.1112 8.50205C71.1597 8.58063 71.2088 8.65877 71.2578 8.73685L71.2579 8.73696L71.2581 8.73724L71.2581 8.73732L71.2582 8.73738C71.4171 8.99037 71.5756 9.24275 71.7128 9.50728C72.955 11.898 74.9681 12.997 77.6088 13.2079C81.0568 13.484 81.2365 13.6011 82.0126 16.9866C82.635 19.7003 84.0933 21.5519 86.747 22.4347C86.7812 22.4466 86.8137 22.4644 86.8464 22.4824C86.871 22.4959 86.8958 22.5095 86.9215 22.5206ZM19.2193 26.7529C14.2452 33.4848 11.7737 41.0475 11.5185 49.4305C11.614 50.2284 11.6922 51.0299 11.7704 51.8312L11.7704 51.8314C11.9355 53.5225 12.1005 55.2135 12.4274 56.8708C16.714 78.2776 37.3968 91.6452 58.6995 86.8351C80.2886 81.96 93.3644 58.9282 86.4918 37.8834C79.0203 15.0026 53.0977 4.48926 31.8863 15.8229C29.9538 16.856 28.1804 18.194 26.4111 19.529L26.4109 19.5291L26.4108 19.5292C25.8388 19.9608 25.2672 20.3921 24.6908 20.8126C23.8782 21.4064 23.8574 22.284 24.4433 22.9455C24.9824 23.5523 25.8132 23.5965 26.5476 23.0392C26.706 22.9186 26.8564 22.7865 27.0068 22.6545L27.0068 22.6545L27.0068 22.6545L27.0068 22.6544C27.1258 22.5499 27.2448 22.4454 27.3679 22.3465C36.0661 15.3359 45.9517 12.7239 56.8999 14.8593C76.0436 18.5938 88.4502 37.2479 84.7105 56.3969C80.9839 75.4859 62.2256 88.0331 43.0845 84.2361C18.3963 79.3402 6.58091 50.678 20.6438 29.7946C20.8261 29.5251 21.0164 29.2609 21.2065 28.9968C21.4537 28.6537 21.7007 28.3107 21.9303 27.956C22.3287 27.3388 22.3391 26.6227 21.7636 26.193C21.3625 25.8935 20.6907 25.7763 20.1854 25.857C19.8379 25.912 19.5095 26.3583 19.2511 26.7096L19.2193 26.7529ZM50.7953 78.9982C35.972 79.2013 23.0993 68.2791 21.0523 53.5808C18.9221 38.2992 29.076 23.9056 44.1285 20.8665C60.4101 17.5773 76.2543 28.4526 78.8533 44.8202C80.2336 53.5105 78.0486 61.3311 72.5016 68.1776C72.1969 68.5526 71.7021 68.951 71.2646 68.9927C70.8401 69.0344 70.1864 68.7401 69.9729 68.3885C69.7385 67.9979 69.7593 67.3312 69.9104 66.8624C70.0135 66.544 70.2577 66.273 70.5025 66.0012C70.6161 65.8751 70.7298 65.7489 70.8297 65.6176C82.8534 49.8802 74.0693 27.1557 54.5871 23.6035C39.4356 20.8404 25.0264 31.9683 23.7894 47.3906C22.6565 61.5186 32.9042 74.0788 46.9098 75.67C53.324 76.3992 59.2486 74.9694 64.642 71.4042L64.8842 71.2402C65.8895 70.5761 66.7723 70.6412 67.2775 71.4147C67.7749 72.1751 67.5301 72.9746 66.5744 73.6361C63.9831 75.42 61.1992 76.8471 58.1523 77.6101C56.4813 78.0256 54.7794 78.3131 53.0781 78.6005L53.078 78.6006C52.316 78.7293 51.5542 78.858 50.7953 78.9982ZM44.5083 63.2802C44.7838 63.4016 45.0674 63.5265 45.3475 63.6729C45.6319 63.529 45.9215 63.408 46.2027 63.2904C46.7817 63.0485 47.3248 62.8215 47.7122 62.4411C53.8243 56.4097 59.8948 50.3314 65.9496 44.2401C67.3064 42.8755 67.2752 40.9171 65.9782 39.4848C65.5995 39.0665 65.1963 38.6701 64.7932 38.2737C64.6391 38.1222 64.4851 37.9707 64.3324 37.8181C62.3532 35.8467 60.5432 35.8363 58.5848 37.7946C57.643 38.7358 56.7007 39.6765 55.7584 40.6172C52.5785 43.7914 49.3988 46.9654 46.2408 50.1595C45.5949 50.8106 45.1574 50.9122 44.5064 50.183C43.6183 49.1908 42.6547 48.261 41.686 47.347C40.212 45.9563 38.2536 45.9876 36.7874 47.3939C36.1051 48.0475 35.4358 48.7116 34.7873 49.3965C33.4279 50.8392 33.3811 52.795 34.7691 54.2169C37.4775 56.9852 40.2094 59.7301 43.0011 62.4099C43.3984 62.7914 43.9358 63.0281 44.5083 63.2802ZM39.0261 49.3777C39.0978 49.3275 39.1751 49.2735 39.2588 49.2116C39.335 49.2689 39.4111 49.3229 39.486 49.376C39.6492 49.4916 39.8063 49.6029 39.9437 49.7351C40.4258 50.209 40.9037 50.6879 41.3817 51.167C41.823 51.6092 42.2644 52.0516 42.7094 52.4903C44.4048 54.1648 46.3345 54.1805 48.0351 52.4903C52.2331 48.3157 56.4259 44.1359 60.5875 39.9223C61.2568 39.2452 61.6656 39.2452 62.3219 39.9223L62.3958 39.9986C64.2051 41.8647 64.2051 41.8647 62.2933 43.7766C56.9572 49.1152 51.6211 54.4539 46.2824 59.79C45.3814 60.6937 45.3788 60.6911 44.4543 59.7692L44.4543 59.7692C43.7914 59.107 43.1301 58.4439 42.469 57.7809C40.7406 56.0476 39.0132 54.3153 37.2614 52.6049C36.652 52.0085 36.5999 51.5841 37.2666 51.0294C37.578 50.7701 37.8609 50.476 38.144 50.1818C38.313 50.0062 38.482 49.8305 38.6572 49.6621C38.7629 49.5617 38.8835 49.4773 39.0261 49.3777Z" fill="url(#paint0_linear_766_3327)"/>
<defs>
<linearGradient id="paint0_linear_766_3327" x1="100" y1="45.5689" x2="-4" y2="45.5689" gradientUnits="userSpaceOnUse">
<stop stop-color="#59B300"/>
<stop offset="1" stop-color="#61C202"/>
</linearGradient>
</defs>
</svg>
