<svg width="26" height="27" viewBox="0 0 26 27" fill="none" xmlns="http://www.w3.org/2000/svg">
<path d="M13.1394 7.49301C16.3865 7.52409 19.284 8.69891 21.8445 10.7688C23.1682 11.8391 24.3012 13.0895 25.2951 14.4692C25.5282 14.792 25.5239 14.9361 25.2965 15.2533C23.8174 17.3175 22.0776 19.1204 19.8505 20.3715C14.971 23.1132 10.1494 22.926 5.44367 19.9272C3.54075 18.7142 2.01432 17.0943 0.686369 15.2816C0.528146 15.0654 0.465983 14.8464 0.643278 14.6041C2.09272 12.6225 3.7915 10.9023 5.88867 9.60245C8.08614 8.24043 10.4701 7.50855 13.1394 7.49301ZM24.2101 14.8648C22.8101 13.0019 21.189 11.4138 19.1717 10.2708C16.0574 8.50534 12.782 8.08006 9.34699 9.17576C7.23499 9.84971 5.41895 11.0259 3.83247 12.5526C3.08656 13.2703 2.40846 14.0594 1.70352 14.8125C2.90503 16.4147 4.23298 17.781 5.83429 18.8604C9.07646 21.0462 12.5892 21.7378 16.3731 20.6357C19.669 19.6764 22.149 17.5676 24.2101 14.8648Z" fill="url(#paint0_linear_155_1008)"/>
<path d="M24.9073 2.0336C24.451 2.0336 24.03 2.0336 23.609 2.0336C22.7282 2.0336 21.8481 2.03855 20.9672 2.03078C20.5187 2.02725 20.2793 1.72206 20.3894 1.32575C20.4615 1.06648 20.6487 0.947091 20.898 0.946384C22.4216 0.940733 23.9452 0.938614 25.4681 0.947797C25.815 0.949917 25.993 1.16538 25.9965 1.54192C26.0029 2.16712 25.9986 2.79233 25.9986 3.41753C25.9986 4.26314 25.9986 5.10876 25.9986 5.95367C25.9986 6.20799 25.9329 6.4284 25.6723 6.53225C25.2916 6.68413 24.9313 6.45383 24.9122 6.03279C24.896 5.6725 24.9073 5.3108 24.9073 4.94981C24.9073 3.99187 24.9073 3.03252 24.9073 2.0336Z" fill="url(#paint1_linear_155_1008)"/>
<path d="M1.09326 25.8486C1.46904 25.8486 1.81092 25.8486 2.15209 25.8486C3.11203 25.8486 4.07196 25.8436 5.0319 25.8514C5.49527 25.8549 5.74955 26.2039 5.59627 26.6052C5.49173 26.8807 5.26146 26.9407 4.99799 26.94C3.73008 26.9386 2.46218 26.9393 1.19356 26.9393C0.990841 26.9393 0.788114 26.9443 0.586097 26.9379C0.20961 26.9266 0.00618061 26.7394 0.0047679 26.3664C-0.0015893 24.8694 -0.0015893 23.3718 0.0047679 21.8748C0.00618061 21.5145 0.233625 21.2962 0.559255 21.3033C0.884885 21.3111 1.08902 21.5265 1.09114 21.8988C1.09679 23.0963 1.09326 24.2944 1.09397 25.4918C1.09326 25.5971 1.09326 25.7023 1.09326 25.8486Z" fill="url(#paint2_linear_155_1008)"/>
<path d="M24.9073 25.8486C24.9073 24.5643 24.9073 23.323 24.9073 22.0818C24.9073 21.985 24.9031 21.8875 24.9151 21.7915C24.9525 21.4926 25.1552 21.309 25.4434 21.304C25.7422 21.2991 25.9548 21.4891 25.9923 21.7992C26.0008 21.8685 25.9986 21.9398 25.9986 22.0105C25.9986 23.4198 25.9993 24.8285 25.9986 26.2378C25.9979 26.7677 25.8284 26.94 25.3064 26.94C23.8711 26.9407 22.4358 26.9422 21.0005 26.9393C20.5152 26.9386 20.2496 26.6024 20.4029 26.1905C20.5103 25.9002 20.7532 25.8486 21.0245 25.8486C22.2133 25.8493 23.4021 25.8486 24.5909 25.8486C24.6848 25.8486 24.7802 25.8486 24.9073 25.8486Z" fill="url(#paint3_linear_155_1008)"/>
<path d="M1.09324 2.0336C1.09324 3.31721 1.09325 4.55773 1.09254 5.79825C1.09254 5.90351 1.09607 6.01089 1.08053 6.11403C1.03603 6.40862 0.821295 6.58594 0.532396 6.57746C0.252679 6.56969 0.0549036 6.3959 0.0111096 6.11191C-0.000898465 6.0342 0.00121957 5.95367 0.00121957 5.87455C0.000513211 4.46589 0.000513211 3.05795 0.00121957 1.6493C0.00121957 1.10534 0.166504 0.942146 0.713929 0.942146C2.14006 0.941439 3.56548 0.940027 4.99162 0.942853C5.46911 0.943559 5.74671 1.29184 5.59696 1.6931C5.49383 1.97002 5.26356 2.03219 5.0008 2.03219C3.95327 2.0329 2.90575 2.03219 1.85893 2.03219C1.61524 2.0336 1.37084 2.0336 1.09324 2.0336Z" fill="url(#paint4_linear_155_1008)"/>
<path d="M12.996 10.4749C15.4238 10.47 17.3839 12.4226 17.3867 14.8499C17.3903 17.2858 15.4541 19.232 13.0179 19.2419C10.5718 19.2518 8.61381 17.3027 8.61381 14.8591C8.61451 12.4282 10.5619 10.4799 12.996 10.4749ZM16.2997 14.8655C16.3032 13.0337 14.8509 11.5678 13.025 11.5593C11.1772 11.5508 9.7136 12.9969 9.7016 14.8429C9.68959 16.6796 11.1546 18.1603 12.9897 18.166C14.8262 18.1723 16.2961 16.7072 16.2997 14.8655Z" fill="url(#paint5_linear_155_1008)"/>
<path d="M12.9974 17.0929C11.7726 17.0724 10.8042 16.1293 10.7816 14.9192C10.7583 13.6808 11.6681 12.7066 12.9049 12.6465C13.2821 12.6282 13.511 12.8041 13.5329 13.129C13.5583 13.4971 13.364 13.7041 12.9607 13.7274C12.486 13.7542 12.1293 13.9683 11.9541 14.4119C11.7804 14.8535 11.8319 15.2858 12.1646 15.6419C12.4882 15.988 12.9014 16.0799 13.3506 15.9428C13.7843 15.81 14.0407 15.5062 14.1156 15.0562C14.1318 14.9608 14.1347 14.8634 14.1502 14.768C14.1982 14.4783 14.4165 14.3039 14.7068 14.3194C15.0084 14.3356 15.2027 14.537 15.2182 14.8506C15.2662 15.8086 14.5564 16.7545 13.5943 17.0004C13.4008 17.0498 13.1973 17.0632 12.9974 17.0929Z" fill="url(#paint6_linear_155_1008)"/>
<defs>
<linearGradient id="paint0_linear_155_1008" x1="26" y1="12.9012" x2="-1.04" y2="12.9012" gradientUnits="userSpaceOnUse">
<stop stop-color="#59B300"/>
<stop offset="1" stop-color="#61C202"/>
</linearGradient>
<linearGradient id="paint1_linear_155_1008" x1="26" y1="12.9012" x2="-1.04" y2="12.9012" gradientUnits="userSpaceOnUse">
<stop stop-color="#59B300"/>
<stop offset="1" stop-color="#61C202"/>
</linearGradient>
<linearGradient id="paint2_linear_155_1008" x1="26" y1="12.9012" x2="-1.04" y2="12.9012" gradientUnits="userSpaceOnUse">
<stop stop-color="#59B300"/>
<stop offset="1" stop-color="#61C202"/>
</linearGradient>
<linearGradient id="paint3_linear_155_1008" x1="26" y1="12.9012" x2="-1.04" y2="12.9012" gradientUnits="userSpaceOnUse">
<stop stop-color="#59B300"/>
<stop offset="1" stop-color="#61C202"/>
</linearGradient>
<linearGradient id="paint4_linear_155_1008" x1="26" y1="12.9012" x2="-1.04" y2="12.9012" gradientUnits="userSpaceOnUse">
<stop stop-color="#59B300"/>
<stop offset="1" stop-color="#61C202"/>
</linearGradient>
<linearGradient id="paint5_linear_155_1008" x1="26" y1="12.9012" x2="-1.04" y2="12.9012" gradientUnits="userSpaceOnUse">
<stop stop-color="#59B300"/>
<stop offset="1" stop-color="#61C202"/>
</linearGradient>
<linearGradient id="paint6_linear_155_1008" x1="26" y1="12.9012" x2="-1.04" y2="12.9012" gradientUnits="userSpaceOnUse">
<stop stop-color="#59B300"/>
<stop offset="1" stop-color="#61C202"/>
</linearGradient>
</defs>
</svg>
