<svg width="26" height="26" viewBox="0 0 26 26" fill="none" xmlns="http://www.w3.org/2000/svg">
<path d="M0.000677727 16.2009C0.0291145 16.142 0.0602588 16.0844 0.0846332 16.0242C0.291815 15.5157 0.664202 15.2273 1.21533 15.1805C1.29116 15.1738 1.36767 15.1731 1.4435 15.1724C2.05557 15.1684 2.28103 14.991 2.37108 14.383C2.39004 14.255 2.31218 14.0905 2.23296 13.9747C2.12463 13.8163 1.96213 13.6957 1.83959 13.5454C1.46246 13.0844 1.43403 12.3985 1.82943 11.955C2.28442 11.4445 2.7692 10.9563 3.27835 10.5C3.73605 10.0904 4.41311 10.1195 4.88841 10.5115C5.03127 10.6293 5.15924 10.7661 5.29262 10.8961C5.44767 11.0477 5.62438 11.0904 5.82682 11.0098C5.95276 10.9597 6.07802 10.9096 6.20124 10.8548C6.39895 10.7681 6.50254 10.6185 6.50118 10.3984C6.49983 10.238 6.49644 10.0768 6.50524 9.91636C6.54519 9.22575 7.05367 8.70441 7.74427 8.68139C8.36108 8.66108 8.97992 8.66108 9.59672 8.68207C10.2779 8.70509 10.7809 9.21966 10.8229 9.8974C10.827 9.96511 10.829 10.0328 10.8297 10.1005C10.8351 10.7288 10.9834 10.9218 11.6123 11.0328C11.739 11.0552 11.9062 10.9827 12.0213 10.9049C12.1872 10.7918 12.3131 10.6232 12.4715 10.4973C12.9556 10.1141 13.6253 10.1053 14.0816 10.5189C14.5698 10.9611 15.0376 11.4296 15.4811 11.9171C15.9009 12.3782 15.8894 13.062 15.494 13.5481C15.3714 13.6984 15.2299 13.8332 15.0945 13.9727C14.9496 14.1223 14.9151 14.2929 14.9882 14.4859C15.0241 14.5807 15.0722 14.6714 15.1033 14.7675C15.2008 15.0722 15.4114 15.1812 15.7221 15.1765C15.9564 15.1724 16.2001 15.1812 16.4236 15.2422C16.9422 15.3843 17.3011 15.8407 17.3173 16.3796C17.3363 17.0052 17.3396 17.6322 17.3193 18.2571C17.297 18.9477 16.7756 19.4549 16.085 19.4975C16.0261 19.5009 15.9666 19.5009 15.9077 19.5009C15.2671 19.5043 15.0931 19.6329 14.9706 20.2728C14.9455 20.4048 15.0254 20.5801 15.106 20.7027C15.2116 20.8625 15.3775 20.981 15.4987 21.1319C15.8711 21.5951 15.9063 22.2606 15.5163 22.7014C15.0518 23.2254 14.5515 23.7224 14.0288 24.1889C13.605 24.5667 12.9252 24.5383 12.479 24.1835C12.3206 24.0575 12.1797 23.9099 12.0335 23.7691C11.8778 23.6188 11.7038 23.5728 11.5006 23.6628C11.3849 23.7143 11.2684 23.7644 11.1499 23.8097C10.9333 23.8923 10.8351 24.0542 10.8303 24.2789C10.8276 24.4144 10.8324 24.5498 10.8276 24.6852C10.8053 25.3101 10.4932 25.734 9.90546 25.9432C9.86823 25.9567 9.83505 25.9811 9.80052 26.0007C9.05575 26.0007 8.31098 26.0007 7.56621 26.0007C7.52897 25.9831 7.49241 25.9621 7.45314 25.9493C6.85123 25.7536 6.51337 25.2986 6.5005 24.6628C6.4978 24.5193 6.52759 24.3676 6.49035 24.2343C6.45311 24.0995 6.38134 23.937 6.27301 23.8659C5.71511 23.4996 5.54313 23.5267 5.06987 23.9905C5.05158 24.0081 5.03398 24.0264 5.0157 24.044C4.43816 24.5823 3.70287 24.5931 3.13007 24.0535C2.72451 23.6709 2.3352 23.2701 1.94453 22.872C1.606 22.5274 1.44892 22.0995 1.59517 21.6431C1.68792 21.3527 1.89375 21.0825 2.09958 20.8469C2.42525 20.4745 2.45301 20.4386 2.25869 19.9769C2.23905 19.9302 2.21671 19.8841 2.19978 19.8367C2.11312 19.6004 1.94453 19.4921 1.69334 19.5002C1.53288 19.505 1.37106 19.509 1.21195 19.4934C0.556549 19.4318 0.191609 19.0303 0 18.4345C0.000677065 17.6904 0.000677727 16.9457 0.000677727 16.2009ZM4.07458 11.0288C3.91885 11.1324 3.78073 11.1987 3.67511 11.2996C3.33861 11.6212 3.01429 11.955 2.68592 12.2847C2.32098 12.651 2.31489 12.8325 2.69337 13.1934C3.04612 13.5299 3.31017 13.9077 3.24043 14.4141C3.2059 14.668 3.0969 14.9151 3.00211 15.1575C2.76852 15.754 2.31421 16.0323 1.68251 16.0391C1.58095 16.0404 1.47939 16.037 1.37783 16.0397C1.02711 16.0492 0.870706 16.2036 0.867321 16.559C0.862581 17.075 0.862581 17.5916 0.867321 18.1075C0.870706 18.4718 1.0332 18.6268 1.39949 18.6376C1.61006 18.6437 1.82401 18.6356 2.0312 18.6688C2.77123 18.7873 3.16054 19.574 3.2445 20.3276C3.30069 20.8286 3.00008 21.1827 2.65884 21.5091C2.33181 21.8219 2.33588 22.0304 2.64936 22.3459C2.97164 22.6702 3.29528 22.9925 3.61892 23.3148C3.98588 23.6804 4.16598 23.6865 4.52754 23.3074C4.85727 22.9621 5.22492 22.7 5.72391 22.7576C6.17484 22.8097 6.59259 22.9817 6.94195 23.2776C7.21955 23.5125 7.3509 23.8314 7.36241 24.1957C7.36647 24.3311 7.36241 24.4665 7.36512 24.6019C7.37257 24.9689 7.52897 25.1314 7.89255 25.1354C8.29879 25.1402 8.70503 25.13 9.11127 25.1381C9.74432 25.1517 10.003 25.1557 9.96843 24.2959C9.94744 23.7657 10.1756 23.329 10.6597 23.0866C11.4079 22.7122 12.0233 22.436 12.8771 23.3825C12.8994 23.4076 12.9245 23.4313 12.9502 23.4529C13.1506 23.6208 13.3781 23.6351 13.567 23.4543C13.9821 23.0562 14.3897 22.6499 14.7871 22.2335C14.974 22.0379 14.9604 21.8246 14.781 21.6188C14.6754 21.4976 14.5542 21.3913 14.4445 21.2735C14.1899 21.0006 14.0112 20.6621 14.0951 20.3059C14.194 19.8882 14.366 19.4725 14.5847 19.1021C14.7709 18.7866 15.1283 18.6586 15.5021 18.6403C15.6544 18.6329 15.8068 18.641 15.9591 18.6356C16.297 18.6248 16.4568 18.4697 16.4615 18.1346C16.4676 17.7202 16.4635 17.3052 16.4635 16.8908C16.4635 16.0736 16.4466 16.056 15.6287 16.0391C15.018 16.0262 14.5826 15.7493 14.3382 15.1846C14.278 15.0451 14.2197 14.9043 14.1683 14.7614C13.9895 14.2618 14.0863 13.8129 14.433 13.4168C14.5386 13.2963 14.6619 13.1906 14.7688 13.0708C14.9679 12.8467 14.9767 12.6294 14.7722 12.4168C14.3849 12.0146 13.9895 11.6199 13.5873 11.2319C13.3761 11.0281 13.1561 11.0376 12.9326 11.2373C12.7999 11.3558 12.6753 11.4824 12.5487 11.607C11.8019 12.3484 10.135 11.605 10.0091 10.7519C9.98807 10.6097 9.97453 10.4668 9.96505 10.3233C9.9576 10.2136 9.96708 10.1032 9.96166 9.99355C9.94609 9.70918 9.79984 9.54871 9.51819 9.54397C8.95148 9.53449 8.3841 9.53517 7.8174 9.5433C7.55131 9.54736 7.39558 9.70376 7.37053 9.96714C7.3597 10.0761 7.36647 10.1872 7.36647 10.2969C7.36444 11.2739 6.42197 12.0586 5.44699 11.9069C5.04211 11.844 4.76451 11.5989 4.49098 11.3274C4.3752 11.2143 4.22624 11.1358 4.07458 11.0288Z" fill="url(#paint0_linear_187_315)"/>
<path d="M26 13.2556C25.914 13.4276 25.8483 13.6131 25.7387 13.7682C25.4624 14.1595 25.0582 14.3044 24.5924 14.3044C24.2031 14.3044 23.8138 14.3098 23.4244 14.3031C23.1617 14.2983 22.9979 14.41 22.9031 14.6565C22.7704 15.0031 22.6309 15.3484 22.4752 15.6856C22.3587 15.9382 22.4028 16.1366 22.5977 16.3248C22.8774 16.5956 23.1509 16.8725 23.4238 17.1508C24.0264 17.7656 24.027 18.5124 23.4197 19.1265C22.8544 19.6986 22.2863 20.2673 21.7135 20.8313C21.1109 21.4244 20.3634 21.4258 19.7561 20.8354C19.3194 20.4102 18.8908 19.9775 18.4616 19.5449C18.2266 19.3079 18.2056 19.0371 18.3979 18.8536C18.5861 18.6749 18.836 18.6979 19.0696 18.9281C19.4853 19.3377 19.8963 19.7534 20.3099 20.1651C20.6309 20.484 20.8333 20.486 21.1488 20.1719C21.6945 19.6282 22.2396 19.0845 22.7826 18.5381C23.0798 18.2388 23.0805 18.0357 22.7867 17.7371C22.5138 17.4595 22.2348 17.188 21.9627 16.9091C21.509 16.4446 21.423 15.9531 21.679 15.3525C21.8245 15.0106 21.9654 14.6666 22.1042 14.322C22.333 13.7513 22.7494 13.4479 23.3676 13.4378C23.7738 13.431 24.18 13.4398 24.5863 13.4337C24.983 13.4276 25.1334 13.2719 25.1347 12.8711C25.1367 12.0924 25.1367 11.3138 25.1347 10.5352C25.1334 10.1249 24.9776 9.96849 24.566 9.96443C24.1685 9.96104 23.7704 9.96646 23.373 9.96239C22.7663 9.9563 22.3493 9.66787 22.1184 9.10726C21.9674 8.74029 21.8178 8.37264 21.662 8.00771C21.423 7.44642 21.5232 6.94945 21.9423 6.51613C22.2247 6.22364 22.5179 5.94266 22.8015 5.6522C23.0751 5.37257 23.0778 5.16268 22.8049 4.88711C22.245 4.32176 21.6824 3.75912 21.1177 3.19919C20.8401 2.9243 20.6315 2.92498 20.3526 3.19648C20.0682 3.47408 19.7913 3.7598 19.5069 4.03807C19.0506 4.48493 18.555 4.57566 17.9734 4.32989C17.6233 4.18161 17.272 4.03807 16.9199 3.89521C16.3322 3.65688 16.0458 3.2432 16.0383 2.60608C16.0336 2.20864 16.041 1.81053 16.0363 1.41309C16.0316 1.03122 15.8711 0.868729 15.4947 0.867375C14.6991 0.86399 13.9036 0.86399 13.108 0.867375C12.7295 0.868729 12.5738 1.02581 12.5677 1.41241C12.5616 1.80172 12.5704 2.19104 12.565 2.58035C12.5548 3.26351 12.2684 3.66501 11.6354 3.91349C11.2894 4.04958 10.9482 4.19583 10.6062 4.3414C10.0558 4.57634 9.56289 4.48358 9.13295 4.07599C8.83165 3.79094 8.54593 3.49033 8.24938 3.19987C7.97043 2.92701 7.76054 2.92498 7.48497 3.19851C6.9203 3.75844 6.35766 4.32109 5.79705 4.88576C5.5269 5.15794 5.52758 5.37595 5.7984 5.65152C6.20193 6.06182 6.61156 6.46603 7.01712 6.8743C7.08212 6.93997 7.14915 7.00768 7.19654 7.08622C7.30894 7.27038 7.27373 7.45048 7.12884 7.59605C6.98259 7.7423 6.80317 7.77006 6.61833 7.66173C6.55333 7.62381 6.4951 7.57235 6.44161 7.51886C6.01574 7.09502 5.58783 6.67321 5.16805 6.24327C4.57765 5.63798 4.57765 4.88711 5.17008 4.2852C5.73408 3.7124 6.30349 3.14435 6.87561 2.57967C7.49039 1.97302 8.23854 1.9737 8.85196 2.57561C9.12347 2.84238 9.39023 3.11456 9.66106 3.382C9.91293 3.63116 10.0185 3.64741 10.3388 3.51064C10.6651 3.37116 10.9895 3.22559 11.3219 3.10508C11.5927 3.0069 11.7071 2.83357 11.6997 2.54988C11.6895 2.16937 11.6929 1.78818 11.6984 1.40767C11.7092 0.692693 12.0098 0.283067 12.6869 0.0433858C12.7092 0.035261 12.7268 0.0149508 12.7464 0.000732422C13.779 0.000732422 14.8115 0.000732422 15.844 0.000732422C16.6518 0.258694 16.9571 0.836229 16.9077 1.65142C16.8887 1.96287 16.9118 2.27703 16.903 2.58983C16.8955 2.84644 17.014 2.99945 17.2449 3.09154C17.5976 3.23236 17.9504 3.37319 18.2957 3.5296C18.5381 3.6386 18.731 3.59866 18.9132 3.41111C19.1894 3.12607 19.4717 2.84576 19.7561 2.56816C20.3614 1.97776 21.1069 1.97505 21.7121 2.56884C22.2917 3.1369 22.8665 3.7097 23.4353 4.28859C24.0291 4.89253 24.0257 5.64001 23.4346 6.24463C23.157 6.529 22.8767 6.81065 22.5917 7.08757C22.4041 7.26903 22.3635 7.46132 22.4732 7.70438C22.6296 8.05036 22.769 8.40311 22.9085 8.75654C22.9999 8.98877 23.155 9.1032 23.4109 9.09778C23.8165 9.08898 24.2227 9.09237 24.6283 9.09643C25.0954 9.10117 25.4908 9.26637 25.759 9.66042C25.8612 9.81073 25.9208 9.99015 25.9993 10.156C26 11.1906 26 12.2231 26 13.2556Z" fill="url(#paint1_linear_187_315)"/>
<path d="M19.9274 11.546C19.9091 13.2143 19.383 14.5218 18.3403 15.6193C18.1325 15.838 17.8806 15.8678 17.691 15.7019C17.4926 15.5279 17.4899 15.2658 17.712 15.0323C18.3877 14.3213 18.8305 13.494 19.0099 12.5264C19.3844 10.5013 18.4101 8.48842 16.5583 7.47079C14.8304 6.52087 12.5778 6.80862 11.1099 8.16546C11.0477 8.22301 10.9874 8.28259 10.9197 8.33337C10.7071 8.49316 10.46 8.47691 10.3056 8.29817C10.1512 8.11942 10.16 7.86485 10.3611 7.68678C10.6394 7.441 10.9183 7.18846 11.2291 6.98872C14.6104 4.81128 19.0817 6.72467 19.8319 10.6679C19.8962 11.0058 19.9077 11.3551 19.9274 11.546Z" fill="url(#paint2_linear_187_315)"/>
<path d="M8.6705 13.4405C10.8527 13.4682 12.5921 15.213 12.5602 17.3553C12.5237 19.815 10.7403 21.1969 8.6617 21.2213C6.44837 21.247 4.74556 19.4528 4.77128 17.2151C4.79566 15.1494 6.58785 13.4141 8.6705 13.4405ZM11.6889 17.339C11.6834 15.6484 10.3401 14.3037 8.66035 14.3078C6.96836 14.3119 5.62709 15.6687 5.63319 17.3702C5.63928 19.0385 7.00898 20.375 8.70165 20.3648C10.3483 20.3547 11.6943 18.9911 11.6889 17.339Z" fill="url(#paint3_linear_187_315)"/>
<defs>
<linearGradient id="paint0_linear_187_315" x1="26" y1="11.9607" x2="-1.04" y2="11.9607" gradientUnits="userSpaceOnUse">
<stop stop-color="#59B300"/>
<stop offset="1" stop-color="#61C202"/>
</linearGradient>
<linearGradient id="paint1_linear_187_315" x1="26" y1="11.9607" x2="-1.04" y2="11.9607" gradientUnits="userSpaceOnUse">
<stop stop-color="#59B300"/>
<stop offset="1" stop-color="#61C202"/>
</linearGradient>
<linearGradient id="paint2_linear_187_315" x1="26" y1="11.9607" x2="-1.04" y2="11.9607" gradientUnits="userSpaceOnUse">
<stop stop-color="#59B300"/>
<stop offset="1" stop-color="#61C202"/>
</linearGradient>
<linearGradient id="paint3_linear_187_315" x1="26" y1="11.9607" x2="-1.04" y2="11.9607" gradientUnits="userSpaceOnUse">
<stop stop-color="#59B300"/>
<stop offset="1" stop-color="#61C202"/>
</linearGradient>
</defs>
</svg>
