<svg width="24" height="24" viewBox="0 0 24 24" fill="none" xmlns="http://www.w3.org/2000/svg">
<path d="M12 0C5.37281 0 0 5.37281 0 12C0 18.6272 5.37281 24 12 24C18.6272 24 24 18.6272 24 12C24 5.37281 18.6272 0 12 0ZM22.4733 11.25H18.4383C18.4336 10.9041 18.4156 10.5587 18.3844 10.2141C18.25 8.77243 17.892 7.36051 17.3231 6.02906C18.2635 5.85148 19.1918 5.61476 20.1023 5.32031C21.4922 7.00098 22.3212 9.07443 22.4733 11.25V11.25ZM8.30063 6.07359C9.27681 6.23977 10.2614 6.35182 11.25 6.40922V11.25H7.06266C7.06703 10.955 7.08266 10.6609 7.10953 10.3678C7.25344 8.72109 7.73156 7.27219 8.30063 6.07359ZM12.75 1.94109C13.6295 2.80897 14.3974 3.78303 15.0361 4.84078C14.5617 4.88672 14.0828 4.91797 13.5994 4.93453C13.3181 4.94484 13.035 4.95 12.75 4.95V1.94109ZM11.25 1.94109V4.90594C10.5238 4.86156 9.795 4.78484 9.06375 4.67578C9.23953 4.39172 9.41484 4.13109 9.58266 3.89531C10.08 3.19638 10.6379 2.5426 11.25 1.94156V1.94109ZM11.25 12.75V17.5912C10.4062 17.64 9.55859 17.7298 8.70703 17.8608C7.83797 16.1442 7.31281 14.4411 7.13156 12.7514L11.25 12.75ZM11.25 19.0936V21.75C10.6126 20.9595 10.0255 20.1298 9.49219 19.2656C10.0797 19.1872 10.6656 19.1298 11.25 19.0936V19.0936ZM12.75 19.0467C13.0337 19.0467 13.3169 19.0519 13.5994 19.0622C13.9336 19.0739 14.2655 19.0941 14.595 19.1198C14.0392 20.0366 13.4228 20.9153 12.75 21.75V19.0467ZM13.6533 17.5631C13.353 17.5525 13.0519 17.547 12.75 17.5467V12.75H16.8684C16.6944 14.3809 16.1983 16.0264 15.3802 17.6864C14.8108 17.6264 14.2352 17.5856 13.6533 17.5641V17.5631ZM12.75 11.25V6.45234C13.0513 6.45234 13.3523 6.44688 13.6533 6.43594C14.3752 6.41 15.0878 6.35359 15.7913 6.26672C16.3869 7.555 16.7587 8.9354 16.8905 10.3486C16.9177 10.6486 16.9333 10.9491 16.9373 11.25H12.75ZM18.9281 4.11047C18.1764 4.32343 17.4137 4.49556 16.6434 4.62609C16.3305 4.05505 15.9832 3.50356 15.6033 2.97469C15.3005 2.55281 15.0019 2.17781 14.7239 1.85578C16.2805 2.27291 17.7194 3.04461 18.9281 4.11047V4.11047ZM9.27609 1.85672C8.99812 2.18063 8.69953 2.55469 8.39672 2.97562C8.06889 3.43168 7.76504 3.90451 7.48641 4.39219C6.78234 4.24312 6.07703 4.06469 5.37047 3.85687C6.51604 2.92115 7.84729 2.23939 9.27609 1.85672V1.85672ZM4.13437 5.04422C5.01875 5.33109 5.90266 5.57422 6.78609 5.77359C6.15563 7.17967 5.75977 8.67953 5.61422 10.2136C5.58297 10.5573 5.565 10.9027 5.56031 11.2495H1.52672C1.68737 8.95015 2.60422 6.76852 4.13437 5.04469V5.04422ZM1.52672 12.75H5.625C5.79469 14.54 6.31109 16.3369 7.17422 18.1406C6.14825 18.3584 5.13449 18.6302 4.13719 18.9548C2.60602 17.2314 1.68816 15.0497 1.52672 12.75V12.75ZM5.37047 20.1431C6.21422 19.8931 7.05797 19.6867 7.90172 19.5239C8.45299 20.4746 9.06717 21.3874 9.74016 22.2562C8.13807 21.9046 6.64128 21.1807 5.37094 20.1431H5.37047ZM14.2603 22.2562C14.9851 21.3215 15.6411 20.3353 16.223 19.3055C17.1362 19.4424 18.0397 19.6375 18.9281 19.8895C17.5982 21.0618 15.9919 21.8762 14.2603 22.2562V22.2562ZM20.1023 18.6797C19.0683 18.3455 18.0117 18.0858 16.9406 17.9025C17.7353 16.1806 18.2142 14.4631 18.3773 12.75H22.4733C22.3212 14.9256 21.4922 16.999 20.1023 18.6797V18.6797Z" fill="white"/>
</svg>
