<svg width="26" height="23" viewBox="0 0 26 23" fill="none" xmlns="http://www.w3.org/2000/svg">
<path fill-rule="evenodd" clip-rule="evenodd" d="M10.1392 5.51714C10.1425 4.04141 11.3358 2.86446 12.8222 2.87053C14.2943 2.8766 15.489 4.06366 15.4842 5.51714C15.4802 6.99692 14.2733 8.18736 12.7822 8.18264C11.3236 8.17791 10.1358 6.98073 10.1392 5.51714ZM12.8215 3.67854C11.7741 3.67787 10.9526 4.49195 10.9519 5.5313C10.9512 6.54705 11.7857 7.37462 12.8107 7.37462C13.8316 7.37462 14.6702 6.54368 14.6722 5.52928C14.6749 4.51016 13.8439 3.67922 12.8215 3.67854Z" fill="url(#paint0_linear_390_728)"/>
<path d="M23.331 17.2489C23.868 16.6388 23.4225 17.1438 23.9602 16.534C24.0433 16.4401 24.0747 16.3589 24.0625 16.2706C24.0437 16.1356 23.9769 16.054 23.8518 16.0151C23.7206 15.9736 23.6144 16.0094 23.5074 16.131C23.1782 16.5047 23.1319 16.5569 23.0648 16.6328C23.0069 16.6982 22.9335 16.7812 22.6492 17.1036L20.6949 19.3206L20.6019 19.2064C20.587 19.188 20.5734 19.171 20.5613 19.1554C20.5525 19.144 20.5445 19.1337 20.5369 19.1243C20.5261 19.1108 20.5161 19.0991 20.506 19.0891C20.3305 18.9143 20.1543 18.7401 19.9781 18.566L19.9751 18.563C19.5711 18.1631 19.1536 17.7502 18.7496 17.3365C18.6979 17.2833 18.6298 17.2602 18.5617 17.2602C18.5176 17.2602 18.4735 17.27 18.4339 17.2876C18.4035 17.3012 18.3759 17.3194 18.3531 17.3414C18.3046 17.3879 18.2747 17.4662 18.2747 17.5456C18.2747 17.6215 18.3004 17.6881 18.3467 17.7331C18.879 18.2493 19.4121 18.781 19.9276 19.2957L20.4885 19.8544C20.6112 19.9764 20.7042 20.031 20.7784 20.0292C20.8529 20.0267 20.9395 19.9665 21.0512 19.8395L21.0672 19.8208L21.0761 19.8103L21.0857 19.7988L23.331 17.2489Z" fill="url(#paint1_linear_390_728)"/>
<path fill-rule="evenodd" clip-rule="evenodd" d="M26 18.4332C25.9793 18.5249 25.9604 18.6172 25.9417 18.7095C25.9021 18.9037 25.8626 19.098 25.8046 19.2864C25.2205 21.1736 23.9655 22.3964 22.028 22.8112C20.0607 23.232 18.3897 22.623 17.073 21.1007C16.9502 20.9584 16.8342 20.9024 16.647 20.9031C12.9511 20.9076 9.25579 20.9074 5.56013 20.9072L3.31925 20.9072C1.39258 20.9072 0.00120905 19.5299 0.000546558 17.6205C-0.000182186 12.8419 -0.000182186 8.06327 0.000546558 3.28465C0.000546558 1.36782 1.38244 0 3.31587 0H19.5884C21.5124 0 22.8963 1.37726 22.897 3.29477V3.36695C22.8983 6.59045 22.8997 9.81396 22.8922 13.0375C22.8916 13.2438 22.9601 13.3369 23.1426 13.428C24.7348 14.2259 25.6737 15.5047 25.9511 17.259C25.9627 17.3318 25.983 17.4026 25.9993 17.4748C25.9997 17.6755 25.9999 17.8764 26 18.0775V18.4332ZM13.8649 11.1847C13.9592 11.2528 14.0331 11.3088 14.1091 11.3614C14.1911 11.4187 14.2733 11.476 14.3554 11.5331L14.5962 11.7005C14.7395 11.7999 14.8828 11.8994 15.0258 11.9992C15.1705 12.1003 15.3151 12.2017 15.4591 12.3036C15.7054 12.4783 15.7582 12.7056 15.6131 12.908C15.4679 13.1096 15.242 13.1292 14.987 12.9599C14.952 12.9368 14.9177 12.9125 14.8835 12.8881L14.8485 12.8633L14.8207 12.8439L13.2547 11.7528L13.2479 11.748C11.1472 10.2845 9.04651 8.82105 6.94932 7.35237C6.76547 7.22355 6.65828 7.22152 6.48054 7.37194C4.65298 8.92321 2.81721 10.4644 0.978786 12.0028C0.855959 12.1053 0.80985 12.2065 0.80985 12.3643C0.813692 13.5954 0.813427 14.8264 0.813162 16.0575L0.813228 17.5888C0.813891 19.0962 1.82539 20.0985 3.34707 20.0985C6.1467 20.0989 8.94674 20.0988 11.7466 20.0986L16.4014 20.0985C15.6246 18.2032 15.7515 16.4179 17.031 14.8228C18.3165 13.2196 20.045 12.6901 22.0592 13.0294L22.0633 13.0163C22.0655 13.0097 22.0678 13.0035 22.0699 12.9976C22.0766 12.9789 22.0823 12.9633 22.0823 12.9478L22.0832 12.5493V12.5331C22.0851 11.6871 22.087 10.8408 22.0789 9.99493C22.0782 9.90321 22.0036 9.79529 21.933 9.72447C21.2288 9.01722 20.5204 8.31422 19.812 7.61122L19.5478 7.349C19.5165 7.3179 19.4827 7.2896 19.4475 7.26007L19.4296 7.24498C19.4186 7.2358 19.4077 7.22645 19.3965 7.2168C17.6279 8.48481 15.8716 9.74336 14.1158 11.0019L13.8649 11.1847ZM21.9818 8.72963L22.085 8.64465C22.085 8.11494 22.0852 7.58528 22.0854 7.05566C22.0858 5.80228 22.0862 4.54903 22.0843 3.29545C22.0823 1.81701 21.0674 0.808011 19.581 0.808011C14.1573 0.807336 8.73348 0.806661 3.30971 0.808011C1.82267 0.808011 0.813228 1.81566 0.812566 3.29882C0.811241 5.79705 0.811903 8.29595 0.811903 10.7942V11.0768C0.852978 11.0445 0.888819 11.0169 0.921215 10.9919C0.975473 10.9501 1.01999 10.9157 1.06292 10.8798C1.91615 10.1626 2.76911 9.44523 3.62207 8.72785L3.66957 8.68788C4.53817 7.95736 5.40676 7.22683 6.27569 6.49648C6.61827 6.20848 6.70711 6.20578 7.0728 6.46073L8.30935 7.32133L8.32167 7.32986C9.82454 8.37549 11.3275 9.42124 12.8235 10.4765C13.0671 10.6485 13.2217 10.6606 13.4714 10.4792C14.8849 9.45139 16.3064 8.43404 17.7276 7.41687L17.7363 7.4106C18.1858 7.08889 18.6353 6.76721 19.0844 6.44522C19.4216 6.20308 19.5519 6.21387 19.8503 6.50996L20.1085 6.76609C20.6873 7.34027 21.2662 7.91445 21.8415 8.49222C21.9052 8.55495 21.9357 8.64937 21.9818 8.72963ZM16.744 17.9172C16.7284 20.2293 18.5967 22.105 20.9351 22.1252C23.2593 22.1455 25.173 20.2752 25.1859 17.9712C25.1988 15.6497 23.3332 13.7558 21.0151 13.7362C18.6543 13.7167 16.7603 15.5708 16.744 17.9172Z" fill="url(#paint2_linear_390_728)"/>
<defs>
<linearGradient id="paint0_linear_390_728" x1="26" y1="10.5529" x2="-1.04" y2="10.5529" gradientUnits="userSpaceOnUse">
<stop stop-color="#59B300"/>
<stop offset="1" stop-color="#61C202"/>
</linearGradient>
<linearGradient id="paint1_linear_390_728" x1="26" y1="10.5529" x2="-1.04" y2="10.5529" gradientUnits="userSpaceOnUse">
<stop stop-color="#59B300"/>
<stop offset="1" stop-color="#61C202"/>
</linearGradient>
<linearGradient id="paint2_linear_390_728" x1="26" y1="10.5529" x2="-1.04" y2="10.5529" gradientUnits="userSpaceOnUse">
<stop stop-color="#59B300"/>
<stop offset="1" stop-color="#61C202"/>
</linearGradient>
</defs>
</svg>
