<svg width="202" height="56" viewBox="0 0 202 56" fill="none" xmlns="http://www.w3.org/2000/svg">
<g opacity="0.7">
<path d="M110.976 19.032L99.9747 30.0335C97.245 32.7631 92.8188 32.7631 90.0892 30.0335C87.3596 27.3038 87.3596 22.8776 90.0892 20.148L101.091 9.14652C103.82 6.4169 108.247 6.4169 110.976 9.14652C113.706 11.8837 113.706 16.3024 110.976 19.032Z" fill="#C96B4F"/>
</g>
<g opacity="0.7">
<path d="M199.953 14.6661L176.035 38.5843C173.305 41.3139 168.879 41.3139 166.149 38.5843C163.42 35.8546 163.42 31.4284 166.149 28.6988L190.067 4.78062C192.797 2.05099 197.223 2.05099 199.953 4.78062C202.683 7.51779 202.683 11.9365 199.953 14.6661Z" fill="#5D84C8"/>
</g>
<g opacity="0.7">
<path d="M175.499 15.8349L164.339 26.9947C161.61 29.7243 157.184 29.7243 154.454 26.9947C151.724 24.2651 151.724 19.8389 154.454 17.1092L165.614 5.94944C168.343 3.21981 172.77 3.21981 175.499 5.94944C178.229 8.67907 178.229 13.1053 175.499 15.8349Z" fill="#C072CC"/>
</g>
<g opacity="0.7">
<path d="M166.096 38.622L154.461 26.9871C151.732 24.2575 151.732 19.8313 154.461 17.1016C157.191 14.372 161.617 14.372 164.347 17.1016L175.982 28.7365C178.711 31.4661 178.711 35.8923 175.982 38.622C173.252 41.3516 168.826 41.3516 166.096 38.622Z" fill="#3E3FA3"/>
</g>
<g opacity="0.7">
<path d="M177.248 27.4621L165.614 15.8273C162.884 13.0977 162.884 8.67144 165.614 5.94181C168.343 3.21219 172.769 3.21219 175.499 5.94181L187.134 17.5767C189.864 20.3063 189.864 24.7325 187.134 27.4621C184.404 30.1918 179.978 30.1918 177.248 27.4621Z" fill="#A3D64C"/>
</g>
<g opacity="0.7">
<path d="M137.986 25.8862L125.295 38.5768C122.565 41.3064 118.139 41.3064 115.41 38.5768C112.68 35.8471 112.68 31.4209 115.41 28.6913L128.1 16.0008C130.83 13.2711 135.256 13.2711 137.986 16.0008C140.715 18.7379 140.715 23.1566 137.986 25.8862Z" fill="#2029A0"/>
</g>
<path d="M127.708 36.1714L125.295 38.5843C122.565 41.3139 118.139 41.3139 115.41 38.5843C112.68 35.8547 112.68 31.4285 115.41 28.6988L117.822 26.2859C120.552 23.5563 124.978 23.5563 127.708 26.2859C130.438 29.0155 130.438 33.4417 127.708 36.1714Z" fill="#C95F5C"/>
<g opacity="0.7">
<path d="M151.747 2.30736C150.209 0.76912 148.188 0 146.167 0C144.146 0 142.133 0.76912 140.595 2.30736C139.049 3.84561 138.28 5.86644 138.28 7.88727C138.28 9.9081 139.049 11.9289 140.595 13.4672C143.671 16.5437 148.663 16.5437 151.747 13.4672C153.285 11.9289 154.054 9.9081 154.054 7.88727C154.054 5.86644 153.285 3.84561 151.747 2.30736ZM146.167 9.61402C145.209 9.61402 144.44 8.8449 144.44 7.88727C144.44 6.92963 145.209 6.16051 146.167 6.16051C147.125 6.16051 147.894 6.92963 147.894 7.88727C147.894 8.8449 147.125 9.61402 146.167 9.61402Z" fill="#A30E90"/>
</g>
<g opacity="0.7">
<path d="M30.6329 20.0651L12.5962 38.1017C9.71581 40.9822 5.0483 40.9822 2.16033 38.1017C-0.720109 35.2213 -0.720109 30.5538 2.16033 27.6658L20.197 9.62914C23.0774 6.7487 27.7449 6.7487 30.6329 9.62914C33.5134 12.5171 33.5134 17.1846 30.6329 20.0651Z" fill="#5D9B64"/>
</g>
<g opacity="0.7">
<path d="M35.4058 35.3042L20.1667 20.0651C17.2862 17.1846 17.2862 12.5171 20.1667 9.62914C23.0471 6.7487 27.7146 6.7487 30.6026 9.62914L45.8418 24.8683C48.7222 27.7487 48.7222 32.4163 45.8418 35.3042C42.9613 38.1847 38.2863 38.1847 35.4058 35.3042Z" fill="#71D1D8"/>
</g>
<g opacity="0.7">
<path d="M59.7993 29.2115L50.6603 20.0726C47.7799 17.1921 47.7799 12.5246 50.6603 9.63665C53.5408 6.75621 58.2083 6.75621 61.0962 9.63665L70.2352 18.7756C73.1157 21.6561 73.1157 26.3236 70.2352 29.2115C67.3472 32.092 62.6797 32.092 59.7993 29.2115Z" fill="#3068B2"/>
</g>
<g opacity="0.7">
<path d="M89.8175 29.762L80.1281 20.0726C77.2477 17.1921 77.2477 12.5246 80.1281 9.63665C83.0085 6.75621 87.676 6.75621 90.564 9.63665L100.253 19.3261C103.134 22.2065 103.134 26.874 100.253 29.762C97.373 32.6424 92.698 32.6424 89.8175 29.762Z" fill="#4553B0"/>
</g>
<g opacity="0.7">
<path d="M35.4059 24.8758L50.6451 9.63665C53.5255 6.75621 58.193 6.75621 61.081 9.63665C63.9615 12.5171 63.9615 17.1846 61.081 20.0726L45.8419 35.3117C42.9614 38.1922 38.2939 38.1922 35.4059 35.3117C32.5255 32.4238 32.5255 27.7562 35.4059 24.8758Z" fill="#3068B2"/>
</g>
<g opacity="0.7">
<path d="M100.525 29.4831L91.4239 38.5843C88.6943 41.314 84.2681 41.314 81.5384 38.5843C78.8088 35.8547 78.8088 31.4285 81.5384 28.6989L90.6397 19.5976C93.3693 16.8679 97.7956 16.8679 100.525 19.5976C103.255 22.3272 103.255 26.7534 100.525 29.4831Z" fill="#27988A"/>
</g>
<path d="M0.305176 54.9093L0.606788 54.1025C1.08183 54.4116 1.45886 54.57 1.75293 54.57C2.27322 54.57 2.53713 54.3513 2.53713 53.9064C2.53713 53.5897 2.28076 53.3183 1.77555 53.092C1.38345 52.9111 1.11954 52.7753 0.983808 52.6849C0.848081 52.5944 0.727433 52.4888 0.629408 52.3682C0.531383 52.2475 0.455976 52.1269 0.403193 51.9911C0.357951 51.8554 0.327796 51.7197 0.327796 51.5613C0.327796 51.1692 0.471058 50.8601 0.757593 50.6414C1.04413 50.4227 1.41361 50.3096 1.88112 50.3096C2.22798 50.3096 2.66532 50.4227 3.20069 50.6414L2.95939 51.4256C2.62007 51.1542 2.2883 51.026 1.94898 51.026C1.74539 51.026 1.5795 51.0712 1.43624 51.1692C1.30051 51.2673 1.22511 51.3879 1.22511 51.5312C1.22511 51.8403 1.39853 52.0665 1.74539 52.2249L2.35617 52.5039C2.72565 52.6773 2.99709 52.8658 3.17052 53.0845C3.34395 53.3032 3.4269 53.5746 3.4269 53.8989C3.4269 54.3287 3.27609 54.6604 2.97448 54.9017C2.67286 55.143 2.25813 55.2637 1.72276 55.2637C1.2251 55.2788 0.75006 55.1581 0.305176 54.9093Z" fill="black"/>
<path d="M13.878 54.6453C13.5387 55.0676 13.0184 55.2863 12.3171 55.2863C11.9401 55.2863 11.6159 55.1505 11.3444 54.8791C11.0654 54.6076 10.9297 54.2683 10.9297 53.8611C10.9297 53.3785 11.1408 52.9638 11.5631 52.632C11.9853 52.3003 12.5283 52.1268 13.1843 52.1268C13.3652 52.1268 13.5688 52.1645 13.795 52.2399C13.795 51.4633 13.4482 51.0787 12.762 51.0787C12.2342 51.0787 11.827 51.222 11.5405 51.5085L11.1861 50.7997C11.3444 50.6715 11.5706 50.5584 11.8572 50.4604C12.1437 50.3699 12.4151 50.3171 12.6715 50.3171C13.3652 50.3171 13.8704 50.4755 14.1796 50.7922C14.4963 51.1089 14.6471 51.6066 14.6471 52.3003V54.0119C14.6471 54.4342 14.7753 54.7132 15.0241 54.8489V55.2712C14.6773 55.2712 14.4209 55.2259 14.2475 55.1204C14.0816 55.0299 13.9534 54.8715 13.878 54.6453ZM13.8026 52.8432C13.5311 52.7829 13.3502 52.7527 13.2371 52.7527C12.8072 52.7527 12.4604 52.8658 12.1889 53.0845C11.9175 53.3031 11.7818 53.5671 11.7818 53.8687C11.7818 54.3663 12.0758 54.6152 12.664 54.6152C13.0938 54.6152 13.4708 54.4116 13.8026 54.0044V52.8432Z" fill="black"/>
<path d="M25.4297 49.2087C25.2563 49.1484 25.0979 49.1182 24.9471 49.1182C24.6907 49.1182 24.4721 49.2163 24.3062 49.4123C24.1403 49.6084 24.0573 49.8572 24.0573 50.1588C24.0573 50.2418 24.0649 50.3247 24.08 50.4076H25.0527V51.124H24.08V55.1883H23.2279V51.124H22.5342V50.4076H23.2279C23.2279 49.7969 23.3787 49.3218 23.6803 48.9674C23.9819 48.6206 24.3816 48.4471 24.8717 48.4471C25.1205 48.4471 25.3844 48.4924 25.6634 48.5829L25.4297 49.2087Z" fill="black"/>
<path d="M37.1101 52.8809H33.6642C33.6642 53.4389 33.815 53.8687 34.1241 54.1703C34.3956 54.4342 34.7425 54.5624 35.1723 54.5624C35.6548 54.5624 36.062 54.4191 36.3863 54.1401L36.7407 54.7509C36.6125 54.8791 36.4089 54.9922 36.1374 55.0902C35.7981 55.2184 35.4211 55.2787 35.0064 55.2787C34.4031 55.2787 33.8979 55.0751 33.4757 54.668C33.0082 54.2155 32.7744 53.6123 32.7744 52.8583C32.7744 52.0665 33.0157 51.4407 33.4908 50.9581C33.9206 50.5358 34.4258 50.3171 35.0139 50.3171C35.6926 50.3171 36.2279 50.5056 36.62 50.8902C36.997 51.2597 37.1855 51.7498 37.1855 52.3606C37.1705 52.5566 37.1479 52.7225 37.1101 52.8809ZM35.0516 51.0335C34.6746 51.0335 34.3579 51.1541 34.1015 51.403C33.8602 51.6367 33.717 51.9232 33.6868 52.2701H36.3335C36.3335 51.9308 36.2279 51.6442 36.0092 51.4105C35.7755 51.1617 35.4513 51.0335 35.0516 51.0335Z" fill="black"/>
<path d="M54.9505 55.1958V51.1315H54.2944V50.4152H55.8025V55.1958H54.9505ZM55.4104 48.6055C55.5537 48.6055 55.6819 48.6583 55.7799 48.7563C55.8855 48.8619 55.9307 48.9825 55.9307 49.1258C55.9307 49.2691 55.8779 49.3972 55.7799 49.5028C55.6743 49.6084 55.5537 49.6536 55.4104 49.6536C55.2672 49.6536 55.1465 49.6008 55.0409 49.5028C54.9354 49.3972 54.8901 49.2766 54.8901 49.1258C54.8901 48.975 54.9429 48.8543 55.0409 48.7563C55.139 48.6508 55.2672 48.6055 55.4104 48.6055Z" fill="black"/>
<path d="M67.0302 55.1883V54.8339C66.7362 55.128 66.3064 55.2788 65.7408 55.2788C65.1451 55.2788 64.655 55.0676 64.2855 54.6378C63.9161 54.208 63.7275 53.635 63.7275 52.9262C63.7275 52.2098 63.9387 51.5991 64.3685 51.0863C64.7983 50.5736 65.311 50.3247 65.8992 50.3247C66.3968 50.3247 66.7663 50.4378 67.0227 50.6716V48.4547H67.8823V55.1883H67.0302ZM67.0302 51.5161C66.8191 51.1919 66.525 51.0335 66.148 51.0335C65.6956 51.0335 65.3261 51.207 65.0396 51.5387C64.7606 51.8781 64.6173 52.3079 64.6173 52.8357C64.6173 53.9894 65.1376 54.5624 66.1857 54.5624C66.3214 54.5624 66.4798 54.5172 66.6683 54.4343C66.8568 54.3513 66.9699 54.2608 67.0227 54.1628V51.5161H67.0302Z" fill="black"/>
<path d="M79.9773 52.8809H76.5314C76.5314 53.4389 76.6822 53.8687 76.9913 54.1703C77.2628 54.4342 77.6096 54.5624 78.0394 54.5624C78.522 54.5624 78.9292 54.4191 79.2534 54.1401L79.6078 54.7509C79.4797 54.8791 79.2761 54.9922 79.0046 55.0902C78.6653 55.2184 78.2883 55.2787 77.8736 55.2787C77.2703 55.2787 76.7651 55.0751 76.3429 54.668C75.8753 54.2155 75.6416 53.6123 75.6416 52.8583C75.6416 52.0665 75.8829 51.4407 76.3579 50.9581C76.7877 50.5358 77.293 50.3171 77.8811 50.3171C78.5597 50.3171 79.0951 50.5056 79.4872 50.8902C79.8642 51.2597 80.0527 51.7498 80.0527 52.3606C80.0452 52.5566 80.0226 52.7225 79.9773 52.8809ZM77.9188 51.0335C77.5418 51.0335 77.2251 51.1541 76.9687 51.403C76.7274 51.6367 76.5841 51.9232 76.554 52.2701H79.2007C79.2007 51.9308 79.0951 51.6442 78.8764 51.4105C78.6502 51.1617 78.326 51.0335 77.9188 51.0335Z" fill="black"/>
<path d="M90.7374 55.1958V52.4134C90.7374 51.9082 90.662 51.5462 90.5112 51.3426C90.3604 51.139 90.104 51.0335 89.742 51.0335C89.546 51.0335 89.3499 51.0938 89.1313 51.2069C88.9201 51.32 88.7542 51.4633 88.6411 51.6367V55.1882H87.7891V50.4076H88.3697L88.6411 51.0259C88.9201 50.5584 89.3801 50.3171 90.0135 50.3171C91.0616 50.3171 91.5819 50.9505 91.5819 52.2249V55.1882H90.7374V55.1958Z" fill="black"/>
<path d="M99.9513 51.0787H99.4009V50.4076H99.9513V49.4048L100.803 49.0805V50.4076H102.115V51.0787H100.803V53.454C100.803 53.8536 100.871 54.1402 101.007 54.3136C101.143 54.4795 101.361 54.57 101.663 54.57C101.882 54.57 102.108 54.5172 102.334 54.4041L102.462 55.1506C102.115 55.2411 101.723 55.2863 101.309 55.2863C100.932 55.2863 100.615 55.143 100.351 54.864C100.087 54.585 99.9589 54.2306 99.9589 53.8008V51.0787H99.9513Z" fill="black"/>
<path d="M110.546 55.1958V51.1315H109.89V50.4152H111.398V55.1958H110.546ZM111.014 48.6055C111.157 48.6055 111.285 48.6583 111.383 48.7563C111.489 48.8619 111.534 48.9825 111.534 49.1258C111.534 49.2691 111.481 49.3972 111.383 49.5028C111.278 49.6084 111.157 49.6536 111.014 49.6536C110.87 49.6536 110.75 49.6008 110.644 49.5028C110.539 49.3972 110.486 49.2766 110.486 49.1258C110.486 48.975 110.539 48.8543 110.637 48.7563C110.742 48.6508 110.863 48.6055 111.014 48.6055Z" fill="black"/>
<path d="M122.181 49.2087C122.007 49.1484 121.849 49.1182 121.698 49.1182C121.442 49.1182 121.223 49.2163 121.057 49.4123C120.891 49.6084 120.808 49.8572 120.808 50.1588C120.808 50.2418 120.816 50.3247 120.831 50.4076H121.804V51.124H120.831V55.1883H119.979V51.124H119.285V50.4076H119.979C119.979 49.7969 120.13 49.3218 120.431 48.9674C120.733 48.6206 121.133 48.4471 121.623 48.4471C121.871 48.4471 122.135 48.4924 122.414 48.5829L122.181 49.2087Z" fill="black"/>
<path d="M130.249 55.1958V51.1315H129.593V50.4152H131.101V55.1958H130.249ZM130.709 48.6055C130.853 48.6055 130.981 48.6583 131.079 48.7563C131.184 48.8619 131.23 48.9825 131.23 49.1258C131.23 49.2691 131.177 49.3972 131.079 49.5028C130.973 49.6084 130.853 49.6536 130.709 49.6536C130.566 49.6536 130.445 49.6008 130.34 49.5028C130.234 49.3972 130.181 49.2766 130.181 49.1258C130.181 48.975 130.234 48.8543 130.332 48.7563C130.445 48.6508 130.566 48.6055 130.709 48.6055Z" fill="black"/>
<path d="M142.91 50.7997L142.487 51.3954C142.397 51.3125 142.246 51.2295 142.027 51.1466C141.809 51.0636 141.59 51.0335 141.379 51.0335C140.919 51.0335 140.549 51.1918 140.278 51.5161C140.006 51.8403 139.871 52.2852 139.871 52.8432C139.871 53.4012 140.006 53.831 140.285 54.125C140.564 54.4191 140.949 54.5624 141.439 54.5624C141.816 54.5624 142.201 54.4116 142.593 54.1175L142.925 54.8338C142.472 55.1279 141.907 55.2787 141.236 55.2787C140.587 55.2787 140.044 55.0601 139.622 54.6227C139.2 54.1854 138.981 53.5897 138.981 52.8432C138.981 52.0816 139.2 51.4708 139.645 51.0109C140.089 50.5509 140.693 50.3171 141.462 50.3171C141.711 50.3171 141.974 50.3699 142.269 50.4755C142.563 50.5811 142.774 50.6866 142.91 50.7997Z" fill="black"/>
<path d="M153.391 54.6453C153.051 55.0676 152.531 55.2863 151.83 55.2863C151.453 55.2863 151.129 55.1505 150.857 54.8791C150.578 54.6076 150.442 54.2683 150.442 53.8611C150.442 53.3785 150.654 52.9638 151.076 52.632C151.498 52.3003 152.041 52.1268 152.697 52.1268C152.878 52.1268 153.074 52.1645 153.308 52.2399C153.308 51.4633 152.961 51.0787 152.275 51.0787C151.747 51.0787 151.34 51.222 151.053 51.5085L150.699 50.7997C150.857 50.6715 151.083 50.5584 151.362 50.4604C151.649 50.3699 151.92 50.3171 152.177 50.3171C152.87 50.3171 153.376 50.4755 153.685 50.7922C154.001 51.1089 154.16 51.6066 154.16 52.3003V54.0119C154.16 54.4342 154.288 54.7132 154.537 54.8489V55.2712C154.19 55.2712 153.934 55.2259 153.76 55.1204C153.587 55.0299 153.466 54.8715 153.391 54.6453ZM153.308 52.8432C153.036 52.7829 152.855 52.7527 152.742 52.7527C152.312 52.7527 151.966 52.8658 151.694 53.0845C151.423 53.3031 151.287 53.5671 151.287 53.8687C151.287 54.3663 151.581 54.6152 152.169 54.6152C152.599 54.6152 152.976 54.4116 153.308 54.0044V52.8432Z" fill="black"/>
<path d="M162.65 51.0787H162.1V50.4076H162.65V49.4048L163.502 49.0805V50.4076H164.814V51.0787H163.502V53.454C163.502 53.8536 163.57 54.1402 163.706 54.3136C163.841 54.4795 164.06 54.57 164.362 54.57C164.58 54.57 164.807 54.5172 165.033 54.4041L165.161 55.1506C164.807 55.2411 164.422 55.2863 164.007 55.2863C163.63 55.2863 163.314 55.143 163.05 54.864C162.793 54.585 162.658 54.2306 162.658 53.8008V51.0787H162.65Z" fill="black"/>
<path d="M173.244 55.1958V51.1315H172.588V50.4152H174.096V55.1958H173.244ZM173.704 48.6055C173.848 48.6055 173.976 48.6583 174.074 48.7563C174.179 48.8619 174.225 48.9825 174.225 49.1258C174.225 49.2691 174.172 49.3972 174.074 49.5028C173.968 49.6084 173.848 49.6536 173.704 49.6536C173.561 49.6536 173.44 49.6008 173.335 49.5028C173.229 49.3972 173.177 49.2766 173.177 49.1258C173.177 48.975 173.229 48.8543 173.327 48.7563C173.44 48.6508 173.561 48.6055 173.704 48.6055Z" fill="black"/>
<path d="M181.984 52.7904C181.984 52.0515 182.18 51.4558 182.58 51.0034C182.979 50.5509 183.5 50.3247 184.148 50.3247C184.834 50.3247 185.362 50.5434 185.739 50.9807C186.116 51.4181 186.305 52.0213 186.305 52.798C186.305 53.5671 186.108 54.1779 185.724 54.6227C185.339 55.0676 184.812 55.2863 184.14 55.2863C183.462 55.2863 182.926 55.0601 182.549 54.6152C182.172 54.1552 181.984 53.552 181.984 52.7904ZM182.874 52.7904C182.874 53.9893 183.296 54.5926 184.148 54.5926C184.54 54.5926 184.857 54.4342 185.075 54.11C185.302 53.7858 185.415 53.3484 185.415 52.7904C185.415 51.6066 184.993 51.0109 184.148 51.0109C183.763 51.0109 183.454 51.1692 183.221 51.4859C182.994 51.8026 182.874 52.24 182.874 52.7904Z" fill="black"/>
<path d="M197.004 55.1958V52.4134C197.004 51.9082 196.929 51.5462 196.778 51.3426C196.627 51.139 196.371 51.0335 196.009 51.0335C195.813 51.0335 195.609 51.0938 195.398 51.2069C195.187 51.32 195.021 51.4633 194.908 51.6367V55.1882H194.063V50.4076H194.644L194.908 51.0259C195.187 50.5584 195.647 50.3171 196.28 50.3171C197.328 50.3171 197.849 50.9505 197.849 52.2249V55.1882H197.004V55.1958Z" fill="black"/>
</svg>
