<svg width="23" height="24" viewBox="0 0 23 24" fill="none" xmlns="http://www.w3.org/2000/svg">
<path fill-rule="evenodd" clip-rule="evenodd" d="M23 10.3267C22.9983 10.3282 22.9963 10.3297 22.9943 10.3311C22.9898 10.3344 22.9853 10.3377 22.9836 10.3419C22.8443 10.7276 22.6186 10.9156 22.3174 10.8967C21.9512 10.873 21.7358 10.6631 21.6543 10.2257C21.3537 8.61228 20.7393 7.13087 19.7792 5.79973C18.5235 4.05793 16.9138 2.74626 14.9116 1.95902C14.3636 1.74376 13.7892 1.59429 13.2158 1.44504L13.2157 1.44503C13.0291 1.39645 12.8425 1.34789 12.6569 1.2971C12.2396 1.18272 12.0029 0.875491 12.0832 0.500729C12.1635 0.125966 12.506 -0.0608073 12.9337 0.0176739C14.7498 0.34985 16.4149 1.04219 17.9164 2.1172C19.3345 3.13259 20.4971 4.38768 21.3963 5.88551C22.1708 7.17589 22.6782 8.56604 22.9544 10.0432C22.9609 10.0771 22.9724 10.1101 22.9838 10.1431L22.9838 10.1431C22.9894 10.1592 22.995 10.1754 23 10.1916V10.3267ZM15.7463 22.9467L15.7463 22.9466C15.4735 22.9043 15.2006 22.862 14.9316 22.8028C13.4405 22.4748 12.0753 21.8306 10.7521 21.0926C8.69573 19.9452 6.86267 18.5064 5.2602 16.7828C3.30669 14.6815 1.69082 12.3563 0.673002 9.65139C0.302498 8.66703 0.0299436 7.65833 0.00195807 6.59671C-0.0260275 5.52718 0.242878 4.56411 1.00822 3.78234C1.15623 3.63121 1.30302 3.47854 1.44985 3.32582C1.90592 2.85145 2.36236 2.3767 2.85709 1.94685C3.86883 1.06835 4.96939 1.07504 5.94463 1.98944C6.97644 2.95677 7.96689 3.97154 8.93056 5.00762C9.67096 5.80399 9.66062 6.9806 8.9409 7.79583C8.58359 8.20047 8.20029 8.5821 7.81695 8.96375C7.65333 9.12666 7.4897 9.28957 7.32809 9.45428C7.298 9.48514 7.26515 9.51325 7.22197 9.5502C7.19792 9.57079 7.17066 9.59411 7.13888 9.62219C8.62029 12.2662 10.6638 14.3213 13.3267 15.8009L13.7 15.4227L13.7002 15.4224C14.0102 15.1082 14.3111 14.8033 14.6135 14.4996C14.9572 14.154 15.304 13.8109 15.7779 13.6399C16.5566 13.3595 17.3001 13.4526 17.8945 14.0177C18.9743 15.0441 20.0268 16.1008 21.0489 17.1844C21.7692 17.9479 21.7942 19.1494 21.1049 19.9452C20.4448 20.7081 19.7263 21.4242 19.0005 22.1256C18.487 22.6221 17.8342 22.8715 17.1248 22.9646C17.0899 22.9692 17.0558 22.9806 17.0216 22.992L17.0215 22.992C17.0063 22.997 16.9911 23.0021 16.9758 23.0066H16.1216C15.9968 22.9855 15.8716 22.9661 15.7463 22.9467ZM16.4429 21.6998C17.255 21.7034 17.8683 21.4643 18.3696 20.9405C18.6941 20.6014 19.0232 20.2669 19.3524 19.9322L19.3526 19.9321C19.5171 19.7649 19.6816 19.5977 19.8455 19.4299C19.9082 19.3654 19.9678 19.2985 20.0244 19.2285C20.3712 18.796 20.3754 18.361 19.9988 17.9534C19.7028 17.6327 19.3931 17.3247 19.0833 17.0165C18.9787 16.9124 18.874 16.8083 18.7699 16.7037C18.6562 16.5897 18.5427 16.4755 18.4292 16.3613L18.4291 16.3612C18.0091 15.9388 17.5893 15.5165 17.1626 15.1013C16.7653 14.7156 16.3194 14.7107 15.8977 15.0678C15.8276 15.1272 15.7618 15.1927 15.6964 15.2578L15.6696 15.2844C15.4896 15.4637 15.3102 15.6436 15.1307 15.8235L15.1302 15.8239L15.1301 15.8241C14.7965 16.1584 14.463 16.4927 14.1261 16.8236C13.755 17.1886 13.3432 17.2549 12.8936 17.028L12.8829 17.0226L12.8829 17.0226C12.5725 16.8656 12.2617 16.7084 11.9633 16.531C10.6079 15.723 9.42883 14.6997 8.36416 13.542C7.42299 12.5187 6.56518 11.4364 5.98539 10.1576C5.67937 9.48165 5.74447 9.1513 6.27498 8.63479L6.35362 8.55834C6.87506 8.05149 7.39699 7.54417 7.89631 7.01588C8.26378 6.62713 8.25161 6.21708 7.91517 5.80338C7.85373 5.72794 7.78681 5.65676 7.71806 5.58801L7.21025 5.07865L7.2101 5.07849C6.53327 4.39953 5.85645 3.72056 5.17807 3.04315C4.63113 2.49683 4.14929 2.49135 3.60358 3.02977C3.49769 3.13418 3.3914 3.23827 3.28509 3.34236L3.28496 3.3425C2.86666 3.75212 2.44814 4.16197 2.05281 4.5927C1.8198 4.8464 1.60687 5.14694 1.48215 5.46451C1.2102 6.15624 1.28929 6.88143 1.43409 7.5902C1.65736 8.68163 2.07106 9.70858 2.56263 10.7039C3.43019 12.4615 4.55934 14.0427 5.86615 15.4967C8.17678 18.069 10.9175 20.0249 14.1712 21.2307C14.9328 21.5136 15.7244 21.67 16.4429 21.6998ZM12.9402 4.22808C12.8207 4.20075 12.7043 4.17414 12.5937 4.14555C12.5491 4.15468 12.5118 4.1614 12.4795 4.16724C12.4212 4.17775 12.3788 4.1854 12.3381 4.19909C12.0419 4.29521 11.8703 4.55499 11.8898 4.87196C11.9086 5.18466 12.1167 5.39699 12.4842 5.47304C14.6202 5.9135 16.1569 7.12175 17.0616 9.10203C17.2055 9.41668 17.2966 9.75509 17.3877 10.0938C17.4349 10.2692 17.4822 10.4446 17.5368 10.6169C17.6487 10.9704 17.9924 11.1644 18.3258 11.0744C18.669 10.9819 18.8776 10.6528 18.8028 10.2932C18.2048 7.42107 16.5256 5.47365 13.777 4.45826C13.5013 4.35638 13.2125 4.29033 12.9402 4.22808Z" fill="white"/>
</svg>
