<svg width="26" height="26" viewBox="0 0 26 26" fill="none" xmlns="http://www.w3.org/2000/svg">
<path d="M24.9073 1.09317C24.451 1.09317 24.03 1.09317 23.609 1.09317C22.7282 1.09317 21.8481 1.09812 20.9673 1.09035C20.5187 1.08682 20.2793 0.781632 20.3895 0.385316C20.4615 0.126051 20.6487 0.00666085 20.898 0.00595441C22.4216 0.000302847 23.9452 -0.00181619 25.4681 0.0073676C25.815 0.00948694 25.993 0.224953 25.9965 0.601488C26.0029 1.22669 25.9986 1.8519 25.9986 2.4771C25.9986 3.32272 25.9986 4.16833 25.9986 5.01324C25.9986 5.26756 25.9329 5.48797 25.6723 5.59182C25.2916 5.7437 24.9313 5.5134 24.9122 5.09236C24.896 4.73207 24.9073 4.37037 24.9073 4.00938C24.9073 3.05144 24.9073 2.09209 24.9073 1.09317Z" fill="url(#paint0_linear_189_374)"/>
<path d="M1.09326 24.9082C1.46904 24.9082 1.81092 24.9082 2.15208 24.9082C3.11202 24.9082 4.07195 24.9032 5.03188 24.911C5.49525 24.9145 5.74954 25.2635 5.59626 25.6648C5.49172 25.9403 5.26145 26.0003 4.99798 25.9996C3.73008 25.9982 2.46217 25.9989 1.19356 25.9989C0.990838 25.9989 0.788112 26.0038 0.586095 25.9975C0.209609 25.9862 0.00618059 25.799 0.00476789 25.426C-0.0015893 23.929 -0.0015893 22.4314 0.00476789 20.9344C0.00618059 20.5741 0.233625 20.3558 0.559254 20.3629C0.884883 20.3707 1.08902 20.5861 1.09114 20.9584C1.09679 22.1558 1.09326 23.354 1.09396 24.5514C1.09326 24.6567 1.09326 24.7619 1.09326 24.9082Z" fill="url(#paint1_linear_189_374)"/>
<path d="M24.9073 24.9082C24.9073 23.6238 24.9073 22.3826 24.9073 21.1414C24.9073 21.0446 24.9031 20.9471 24.9151 20.851C24.9525 20.5522 25.1553 20.3685 25.4434 20.3636C25.7422 20.3586 25.9548 20.5487 25.9923 20.8588C26.0008 20.928 25.9986 20.9994 25.9986 21.07C25.9986 22.4794 25.9993 23.888 25.9986 25.2974C25.9979 25.8272 25.8284 25.9996 25.3064 25.9996C23.8711 26.0003 22.4358 26.0017 21.0005 25.9989C20.5152 25.9982 20.2496 25.6619 20.4029 25.2501C20.5103 24.9597 20.7533 24.9082 21.0245 24.9082C22.2133 24.9089 23.4021 24.9082 24.5909 24.9082C24.6848 24.9082 24.7802 24.9082 24.9073 24.9082Z" fill="url(#paint2_linear_189_374)"/>
<path d="M1.09338 1.09317C1.09338 2.37679 1.09338 3.6173 1.09267 4.85782C1.09267 4.96308 1.0962 5.07046 1.08066 5.1736C1.03616 5.46819 0.821431 5.64551 0.532532 5.63703C0.252816 5.62926 0.0550414 5.45547 0.0112475 5.17148C-0.000760503 5.09377 0.00135752 5.01324 0.00135752 4.93412C0.000651169 3.52547 0.000651169 2.11752 0.00135752 0.708869C0.00135752 0.164906 0.166642 0.00171608 0.714066 0.00171608C2.14019 0.00100963 3.56561 -0.00040257 4.99174 0.00242321C5.46924 0.00312966 5.74683 0.351407 5.59709 0.752668C5.49396 1.02959 5.26369 1.09176 5.00092 1.09176C3.9534 1.09247 2.90588 1.09176 1.85907 1.09176C1.61537 1.09317 1.37097 1.09317 1.09338 1.09317Z" fill="url(#paint3_linear_189_374)"/>
<path d="M16.457 20.8305C16.4523 20.8323 16.4475 20.8336 16.4427 20.8353H13.7566C13.5695 20.7657 13.516 20.6734 13.4925 20.549C13.4664 20.4098 13.4894 20.2875 13.5573 20.2048C13.6217 20.1269 13.7292 20.0834 13.8597 20.0825C14.7374 20.0764 15.6172 20.0786 16.3622 20.0817C16.6659 20.083 16.7277 20.2461 16.7477 20.388C16.7808 20.6251 16.6942 20.7574 16.457 20.8305Z" fill="url(#paint4_linear_189_374)"/>
<path d="M20.9268 18.6984V18.8494C20.7997 19.1392 20.7406 19.1666 20.3524 19.1666C20.308 19.167 20.2637 19.1674 20.2188 19.1674L20.1253 19.1679C19.9743 19.1692 19.8311 19.1705 19.6901 19.1635C19.4656 19.1535 19.3555 19.0482 19.3338 18.8211C19.3198 18.6779 19.3695 18.4673 19.5244 18.4473C19.8907 18.4003 20.2863 18.3986 20.7023 18.4421C20.7336 18.4451 20.8276 18.4543 20.9268 18.6984Z" fill="url(#paint5_linear_189_374)"/>
<path d="M13.3866 8.05979C13.3688 8.28519 13.109 8.30347 13.0298 8.30347C12.9306 8.30347 12.6974 8.2778 12.6665 8.03891C12.6517 7.92447 12.6487 7.80263 12.6461 7.67122C12.6447 7.61334 12.6434 7.55591 12.6408 7.49891C12.643 7.44234 12.6447 7.38621 12.6461 7.33007C12.6487 7.2078 12.6517 7.09249 12.6656 6.98458C12.6965 6.73612 12.9289 6.70914 13.0277 6.70914H13.0329C13.0886 6.70957 13.3688 6.7235 13.3871 6.96021C13.4154 7.32442 13.4154 7.69428 13.3866 8.05979Z" fill="url(#paint6_linear_189_374)"/>
<path d="M18.4167 12.9637C18.4128 13.1822 18.3044 13.2931 18.076 13.3123C18.0359 13.3158 17.9907 13.3175 17.9337 13.3175C17.8871 13.3175 17.8397 13.3166 17.7901 13.3153C17.7357 13.314 17.6813 13.3132 17.6265 13.3132H17.2292C17.1809 13.3101 17.1387 13.3062 17.0987 13.3014C16.9877 13.2875 16.9202 13.2344 16.8802 13.1665C16.8402 13.0986 16.828 13.0151 16.8271 12.9407C16.8267 12.9059 16.8306 12.6 17.0817 12.5791C17.4311 12.5495 17.7727 12.5473 18.0973 12.5721C18.2983 12.5874 18.4206 12.7375 18.4167 12.9637Z" fill="url(#paint7_linear_189_374)"/>
<path d="M20.0881 16.0371C20.089 16.128 20.0898 16.2133 20.0863 16.2969C20.0772 16.5358 19.9606 16.6537 19.7287 16.6576C19.723 16.6576 19.7174 16.658 19.7121 16.658C19.4728 16.658 19.3501 16.5471 19.337 16.3199C19.3205 16.0293 19.3201 15.7225 19.3362 15.4088C19.3484 15.1794 19.4732 15.0637 19.7082 15.0637H19.7204C19.9584 15.0681 20.0781 15.189 20.0868 15.4344C20.0903 15.5245 20.0894 15.6168 20.0881 15.7194C20.0876 15.7656 20.0872 15.8117 20.0872 15.8578C20.0872 15.9083 20.0876 15.9596 20.0881 16.0097V16.0371Z" fill="url(#paint8_linear_189_374)"/>
<path d="M14.6609 15.4636C14.6557 15.6964 14.54 15.8091 14.2963 15.8178C14.2014 15.8213 14.1074 15.8204 14.0073 15.8195H14.0026C13.9551 15.8191 13.9081 15.8187 13.8581 15.8187H13.8524C13.805 15.8195 13.7637 15.8191 13.7093 15.8195C13.6127 15.8204 13.5217 15.8213 13.4334 15.8178C13.312 15.813 13.2224 15.7825 13.1619 15.7229C13.1018 15.6637 13.0709 15.5759 13.0675 15.4575C13.0622 15.29 13.1166 15.0863 13.4047 15.0689C13.7162 15.0506 14.0261 15.0506 14.3272 15.0694C14.5569 15.0833 14.6661 15.2125 14.6609 15.4636Z" fill="url(#paint9_linear_189_374)"/>
<path d="M14.2393 12.0861C14.2415 12.2571 14.1884 12.4638 13.9247 12.476C13.7646 12.4834 13.6058 12.4868 13.453 12.4868C13.2999 12.4868 13.1423 12.4834 12.9713 12.476C12.7699 12.4677 12.6493 12.3285 12.6493 12.1044V12.1017C12.6498 11.8689 12.7703 11.7362 12.9883 11.7284C13.0414 11.7267 13.0953 11.7258 13.1506 11.7258C13.1954 11.7258 13.2411 11.7262 13.2881 11.7267C13.3229 11.7271 13.3573 11.7275 13.3917 11.7275L13.4461 11.728L13.5984 11.7267C13.7041 11.7258 13.8037 11.7249 13.9017 11.7284C14.1771 11.7375 14.2371 11.9277 14.2393 12.0861Z" fill="url(#paint10_linear_189_374)"/>
<path d="M17.5854 17.1145C17.5863 17.3033 17.4584 17.4617 17.2943 17.4748C16.9379 17.5035 16.5764 17.5018 16.2195 17.4691C16.0055 17.4495 15.9955 17.1676 15.9955 17.1114C15.9955 17.014 16.0211 16.7847 16.25 16.7529C16.2744 16.7498 16.2996 16.7468 16.3266 16.7446L16.327 16.7485H16.7726C16.8348 16.7485 16.8971 16.7468 16.9601 16.7451C17.072 16.7411 17.1781 16.7377 17.2695 16.749C17.4518 16.7712 17.5846 16.9248 17.5854 17.1145Z" fill="url(#paint11_linear_189_374)"/>
<path d="M10.0628 13.0978C10.0637 13.2022 10.0646 13.301 10.0611 13.3976C10.052 13.6682 9.85876 13.7283 9.70081 13.7305H9.68732C9.44843 13.7305 9.32268 13.623 9.31311 13.4115C9.29875 13.0886 9.29918 12.7684 9.31354 12.4603C9.32398 12.2458 9.45496 12.14 9.70124 12.1453C9.8605 12.1483 10.0524 12.2097 10.0611 12.4834C10.0646 12.5817 10.0637 12.6813 10.0628 12.7906V12.7971C10.0624 12.845 10.062 12.8928 10.062 12.9389C10.0615 12.9777 10.062 13.0168 10.0624 13.0556L10.0628 13.0978Z" fill="url(#paint12_linear_189_374)"/>
<path d="M10.5067 5.0739H5.53964C5.28204 5.0739 5.07317 5.28277 5.07317 5.54037V10.3442C5.07317 10.6018 5.28204 10.8107 5.53964 10.8107H10.5067C10.7643 10.8107 10.9731 10.6018 10.9731 10.3442V5.54037C10.9731 5.28277 10.7643 5.0739 10.5067 5.0739ZM10.2604 10.1175H5.78592V5.76707H10.2604V10.1175Z" fill="url(#paint13_linear_189_374)"/>
<path d="M20.4029 5.0739H15.4359C15.1783 5.0739 14.9694 5.28277 14.9694 5.54037V10.3442C14.9694 10.6018 15.1783 10.8107 15.4359 10.8107H20.4029C20.6605 10.8107 20.8694 10.6018 20.8694 10.3442V5.54037C20.8694 5.28277 20.6605 5.0739 20.4029 5.0739ZM20.1566 10.1175H15.6822V5.76707H20.1566V10.1175Z" fill="url(#paint14_linear_189_374)"/>
<path d="M10.5067 15.065H5.53964C5.28204 15.065 5.07317 15.2739 5.07317 15.5315V20.3353C5.07317 20.5929 5.28204 20.8018 5.53964 20.8018H10.5067C10.7643 20.8018 10.9731 20.5929 10.9731 20.3353V15.5315C10.9731 15.2739 10.7643 15.065 10.5067 15.065ZM10.2604 20.1086H5.78592V15.7582H10.2604V20.1086Z" fill="url(#paint15_linear_189_374)"/>
<defs>
<linearGradient id="paint0_linear_189_374" x1="26" y1="11.9607" x2="-1.04" y2="11.9607" gradientUnits="userSpaceOnUse">
<stop stop-color="#59B300"/>
<stop offset="1" stop-color="#61C202"/>
</linearGradient>
<linearGradient id="paint1_linear_189_374" x1="26" y1="11.9607" x2="-1.04" y2="11.9607" gradientUnits="userSpaceOnUse">
<stop stop-color="#59B300"/>
<stop offset="1" stop-color="#61C202"/>
</linearGradient>
<linearGradient id="paint2_linear_189_374" x1="26" y1="11.9607" x2="-1.04" y2="11.9607" gradientUnits="userSpaceOnUse">
<stop stop-color="#59B300"/>
<stop offset="1" stop-color="#61C202"/>
</linearGradient>
<linearGradient id="paint3_linear_189_374" x1="26" y1="11.9607" x2="-1.04" y2="11.9607" gradientUnits="userSpaceOnUse">
<stop stop-color="#59B300"/>
<stop offset="1" stop-color="#61C202"/>
</linearGradient>
<linearGradient id="paint4_linear_189_374" x1="26" y1="11.9607" x2="-1.04" y2="11.9607" gradientUnits="userSpaceOnUse">
<stop stop-color="#59B300"/>
<stop offset="1" stop-color="#61C202"/>
</linearGradient>
<linearGradient id="paint5_linear_189_374" x1="26" y1="11.9607" x2="-1.04" y2="11.9607" gradientUnits="userSpaceOnUse">
<stop stop-color="#59B300"/>
<stop offset="1" stop-color="#61C202"/>
</linearGradient>
<linearGradient id="paint6_linear_189_374" x1="26" y1="11.9607" x2="-1.04" y2="11.9607" gradientUnits="userSpaceOnUse">
<stop stop-color="#59B300"/>
<stop offset="1" stop-color="#61C202"/>
</linearGradient>
<linearGradient id="paint7_linear_189_374" x1="26" y1="11.9607" x2="-1.04" y2="11.9607" gradientUnits="userSpaceOnUse">
<stop stop-color="#59B300"/>
<stop offset="1" stop-color="#61C202"/>
</linearGradient>
<linearGradient id="paint8_linear_189_374" x1="26" y1="11.9607" x2="-1.04" y2="11.9607" gradientUnits="userSpaceOnUse">
<stop stop-color="#59B300"/>
<stop offset="1" stop-color="#61C202"/>
</linearGradient>
<linearGradient id="paint9_linear_189_374" x1="26" y1="11.9607" x2="-1.04" y2="11.9607" gradientUnits="userSpaceOnUse">
<stop stop-color="#59B300"/>
<stop offset="1" stop-color="#61C202"/>
</linearGradient>
<linearGradient id="paint10_linear_189_374" x1="26" y1="11.9607" x2="-1.04" y2="11.9607" gradientUnits="userSpaceOnUse">
<stop stop-color="#59B300"/>
<stop offset="1" stop-color="#61C202"/>
</linearGradient>
<linearGradient id="paint11_linear_189_374" x1="26" y1="11.9607" x2="-1.04" y2="11.9607" gradientUnits="userSpaceOnUse">
<stop stop-color="#59B300"/>
<stop offset="1" stop-color="#61C202"/>
</linearGradient>
<linearGradient id="paint12_linear_189_374" x1="26" y1="11.9607" x2="-1.04" y2="11.9607" gradientUnits="userSpaceOnUse">
<stop stop-color="#59B300"/>
<stop offset="1" stop-color="#61C202"/>
</linearGradient>
<linearGradient id="paint13_linear_189_374" x1="26" y1="11.9607" x2="-1.04" y2="11.9607" gradientUnits="userSpaceOnUse">
<stop stop-color="#59B300"/>
<stop offset="1" stop-color="#61C202"/>
</linearGradient>
<linearGradient id="paint14_linear_189_374" x1="26" y1="11.9607" x2="-1.04" y2="11.9607" gradientUnits="userSpaceOnUse">
<stop stop-color="#59B300"/>
<stop offset="1" stop-color="#61C202"/>
</linearGradient>
<linearGradient id="paint15_linear_189_374" x1="26" y1="11.9607" x2="-1.04" y2="11.9607" gradientUnits="userSpaceOnUse">
<stop stop-color="#59B300"/>
<stop offset="1" stop-color="#61C202"/>
</linearGradient>
</defs>
</svg>
