<svg width="26" height="26" viewBox="0 0 26 26" fill="none" xmlns="http://www.w3.org/2000/svg">
<path d="M23.1004 2.90973C23.1004 2.68704 23.1012 2.4652 23.1021 2.24251C23.1038 1.72818 23.1054 1.19724 23.0971 0.676257C23.0903 0.281578 22.8209 0.00405928 22.442 0.000732422H22.4344C22.0581 0.000732422 21.7903 0.266618 21.7658 0.663792C21.7584 0.789421 21.76 0.916643 21.7616 1.05099V1.05847C21.7625 1.11829 21.7634 1.17813 21.7634 1.23795C21.7634 1.49802 21.7658 1.78136 21.7684 2.06304C21.7718 2.3364 21.7743 2.60811 21.7743 2.85489V3.44732L21.2994 3.08505L21.0426 2.88979C18.6379 1.07426 15.9545 0.157774 13.0547 0.157774C12.7264 0.157774 12.3946 0.169408 12.0612 0.193508C8.96185 0.412026 6.27844 1.57529 4.08418 3.65255C0.976491 6.59312 -0.369038 10.2408 0.0864882 14.4917C0.167233 15.2478 0.388254 16.0163 0.601874 16.7592L0.602614 16.7617C0.666585 16.9844 0.730556 17.2062 0.791238 17.4289C0.878808 17.7522 1.18024 17.8569 1.43621 17.8469C1.72498 17.8361 1.97585 17.6408 2.01886 17.394C2.04829 17.2279 2.0256 17.0102 1.95908 16.8132C1.3132 14.9096 1.15073 12.9761 1.47658 11.0659C2.14935 7.11326 4.81335 3.84532 8.60228 2.32477C12.392 0.802556 16.613 1.30774 19.8924 3.67499C19.9236 3.6972 19.9535 3.71996 19.9825 3.74283C20.0153 3.76874 20.0468 3.7948 20.0777 3.82039L20.1213 3.85609L20.1535 3.88188L20.7016 4.31977L20.001 4.39705C19.555 4.44587 19.1313 4.45101 18.7211 4.45598L18.7162 4.45604C18.6118 4.4577 18.5074 4.45853 18.403 4.46102C18.1605 4.46518 17.9534 4.54494 17.8178 4.68454C17.7042 4.8017 17.646 4.95624 17.6502 5.13156C17.6595 5.51461 17.9651 5.77302 18.4106 5.77468C19.4773 5.77801 20.7411 5.78049 22.0319 5.77385C22.6946 5.77052 23.0937 5.37253 23.0996 4.71029C23.1029 4.29069 23.1021 3.8636 23.1012 3.45065C23.1012 3.27034 23.1004 3.09004 23.1004 2.90973Z" fill="url(#paint0_linear_187_305)"/>
<path d="M14.4936 25.7504C17.2116 25.4555 19.5953 24.4127 21.5764 22.6512C24.9174 19.6807 26.3782 15.93 25.9169 11.5021C25.8369 10.7418 25.6145 9.96991 25.399 9.22293C25.3359 9.00357 25.2727 8.78421 25.2129 8.56568C25.0993 8.14941 24.6716 8.14442 24.5427 8.15273C24.3011 8.16851 24.0316 8.32721 23.9845 8.59975C23.955 8.76926 23.9778 8.98612 24.0443 9.18055C24.7532 11.2462 24.8837 13.3492 24.4324 15.4306C23.614 19.2062 20.934 22.308 17.2646 23.7272C13.5944 25.1464 9.4931 24.6678 6.29357 22.4468C6.19004 22.3745 6.08809 22.2989 5.98539 22.2241C5.93992 22.19 5.89362 22.1559 5.84733 22.1219L5.18386 21.6383L6.00816 21.5976L6.02617 21.5967C6.19144 21.5888 7.3532 21.533 7.95311 21.5228C8.12324 21.5203 8.25956 21.497 8.35725 21.4538C8.61996 21.34 8.77487 21.0342 8.70925 20.7575C8.6318 20.4277 8.38339 20.2299 8.0466 20.2291C7.325 20.2258 6.60931 20.2249 5.93572 20.2249C5.22176 20.2249 4.55484 20.2258 3.98321 20.2274C3.30115 20.2291 2.90795 20.6204 2.90376 21.3009C2.90171 21.7278 2.90187 22.154 2.90203 22.5807V22.893L2.90294 23.5377C2.90294 23.7023 2.9022 23.8668 2.90146 24.0313L2.90121 24.0762L2.90097 24.1546C2.89932 24.5438 2.89768 24.9434 2.90713 25.335C2.91552 25.7114 3.18415 25.9914 3.54618 26.0005C3.93264 26.0088 4.20629 25.7496 4.23663 25.3524C4.24501 25.2386 4.24337 25.1206 4.24164 24.996L4.24131 24.927C4.24107 24.8998 4.24082 24.8726 4.24082 24.8456V22.5938L4.70556 22.9187C4.74519 22.9453 4.77717 22.9677 4.80497 22.9869C4.85965 23.0251 4.89928 23.0525 4.93801 23.0816C7.76876 25.2328 10.9834 26.131 14.4936 25.7504Z" fill="url(#paint1_linear_187_305)"/>
<defs>
<linearGradient id="paint0_linear_187_305" x1="26" y1="11.9607" x2="-1.04" y2="11.9607" gradientUnits="userSpaceOnUse">
<stop stop-color="#59B300"/>
<stop offset="1" stop-color="#61C202"/>
</linearGradient>
<linearGradient id="paint1_linear_187_305" x1="26" y1="11.9607" x2="-1.04" y2="11.9607" gradientUnits="userSpaceOnUse">
<stop stop-color="#59B300"/>
<stop offset="1" stop-color="#61C202"/>
</linearGradient>
</defs>
</svg>
