<svg width="26" height="21" viewBox="0 0 26 21" fill="none" xmlns="http://www.w3.org/2000/svg">
<path d="M22.6476 19.2314L22.6526 19.2228C22.7537 19.0479 22.9767 18.9877 23.1516 19.088C23.2548 19.1468 23.3573 19.2063 23.462 19.2658C23.6448 19.3705 23.8786 19.3003 23.9725 19.1117C24.7059 17.6341 25.1203 16.084 25.2279 14.4286C25.2415 14.2178 25.073 14.0393 24.8622 14.0393H24.5339C24.3317 14.0393 24.1675 13.8751 24.1675 13.673V13.6615C24.1675 13.4593 24.3317 13.2951 24.5339 13.2951H24.8622C25.073 13.2951 25.2415 13.1173 25.2279 12.9073C25.1253 11.2439 24.7045 9.69248 23.9696 8.1998C23.8764 8.01052 23.6427 7.93954 23.4592 8.04422L23.148 8.22202C22.9752 8.32096 22.7522 8.26074 22.6519 8.08652L22.6476 8.07935C22.5472 7.90513 22.6053 7.68216 22.7788 7.58035C22.882 7.51941 22.9845 7.45919 23.0871 7.39897C23.2677 7.29214 23.3229 7.05555 23.2068 6.88061C22.2934 5.50982 21.1578 4.37561 19.7776 3.45075C19.6034 3.33389 19.3668 3.38838 19.2593 3.56833C19.1976 3.67157 19.136 3.77553 19.0743 3.8802C18.9718 4.05227 18.7495 4.11034 18.576 4.01068L18.5696 4.0071C18.3954 3.90673 18.3351 3.68376 18.4348 3.50882C18.4936 3.4063 18.5517 3.30378 18.6112 3.1991C18.7151 3.01628 18.6449 2.78327 18.4563 2.68935C16.9787 1.95592 15.4279 1.53866 13.7661 1.43183C13.5553 1.41821 13.3775 1.58669 13.3775 1.79747V2.12942C13.3775 2.3316 13.2133 2.49578 13.0111 2.49578H12.9975C12.7953 2.49578 12.6311 2.3316 12.6311 2.12942V1.79891C12.6311 1.58884 12.454 1.42036 12.244 1.43255C10.5857 1.52934 9.03708 1.95377 7.54584 2.68505C7.35656 2.77754 7.28558 3.01198 7.38954 3.1948L7.56591 3.50452C7.66413 3.67659 7.60463 3.89884 7.43184 3.99993L7.42467 4.00423C7.25045 4.10604 7.02605 4.04725 6.92352 3.87303C6.86402 3.77051 6.80451 3.66942 6.74429 3.56761C6.63818 3.38622 6.40087 3.3303 6.22594 3.44716C4.84438 4.36557 3.70731 5.5048 2.78819 6.88061C2.67133 7.05555 2.72653 7.29286 2.90791 7.39968C3.01187 7.46063 3.11512 7.52156 3.22051 7.58322C3.39401 7.68503 3.4528 7.908 3.35171 8.08222L3.34812 8.08867C3.24703 8.26289 3.02406 8.32311 2.84913 8.22274C2.74589 8.16395 2.64337 8.10444 2.53869 8.04494C2.35659 7.94026 2.12215 8.01052 2.02895 8.19836C1.29336 9.67527 0.875376 11.2303 0.769268 12.8915C0.755646 13.1023 0.924127 13.2801 1.13491 13.2801H1.46685C1.66903 13.2801 1.83321 13.4442 1.83321 13.6464V13.6572C1.83321 13.8594 1.66903 14.0235 1.46685 14.0235H1.13205C0.928434 14.0235 0.764255 14.1899 0.765689 14.3935C0.774292 15.6567 1.39731 17.9868 2.02679 19.1246C2.12573 19.3038 2.35085 19.3691 2.52865 19.268C2.63405 19.2085 2.73943 19.1483 2.84697 19.0873C3.02119 18.9884 3.24345 19.0479 3.34454 19.2214L3.35027 19.2322C3.45208 19.4071 3.39257 19.6301 3.21836 19.7326C2.87852 19.9319 2.54514 20.129 2.20029 20.3018C1.96871 20.418 1.80095 20.266 1.68194 20.0538C1.11053 19.035 0.673914 17.9624 0.392154 16.8289C-1.23388 10.2861 2.32575 3.65866 8.67932 1.39312C16.0596 -1.23807 24.1747 3.34249 25.7247 11.0238C26.3613 14.1798 25.891 17.1724 24.3424 19.995C24.1295 20.3828 23.9782 20.4216 23.5896 20.1972C23.3222 20.0423 23.0548 19.8874 22.7816 19.7283C22.606 19.6301 22.5465 19.4064 22.6476 19.2314Z" fill="url(#paint0_linear_159_35)"/>
<path d="M14.6142 10.0309C14.6845 10.1312 14.7511 10.2266 14.82 10.3241C14.8802 10.4101 14.8594 10.5299 14.7741 10.5908C14.5927 10.7199 14.4142 10.8468 14.2349 10.9729C14.098 11.069 13.9611 11.1651 13.8148 11.2676C13.6929 11.3529 13.7101 11.5393 13.8471 11.5995C14.3884 11.8376 14.7791 12.214 15.03 12.7545C15.0931 12.8893 15.2803 12.903 15.3627 12.7789C16.2374 11.4691 17.0991 10.1793 17.9588 8.89308C17.786 8.72388 17.824 8.76116 17.6512 8.59196C17.2095 8.90025 16.765 9.20925 16.3155 9.52327C16.228 9.58421 16.1076 9.56199 16.0474 9.47452C15.9764 9.372 15.9083 9.27306 15.8395 9.17269C15.7821 9.08881 15.7979 8.97194 15.8811 8.91316C15.8818 8.91316 15.8818 8.91244 15.8825 8.91244C17.1579 8.02271 18.4341 7.13441 19.7095 6.2454C19.7461 6.21959 19.7819 6.19306 19.8207 6.17012C19.9884 6.07047 20.1748 6.06975 20.2759 6.22819C20.3483 6.34147 20.3655 6.52859 20.3311 6.66266C20.2924 6.81035 20.1662 6.9351 20.0773 7.06845C18.3452 9.66093 16.6138 12.2541 14.8788 14.8459C14.3375 15.6546 13.566 16.0059 12.6161 15.8446C11.6991 15.689 11.0825 15.1255 10.851 14.2171C10.6108 13.2779 10.8868 12.4663 11.6611 11.8856C12.5315 11.2325 13.4355 10.6238 14.3475 9.98499C14.4343 9.92333 14.554 9.94412 14.6142 10.0309ZM12.9652 15.1377C13.7732 15.1628 14.4629 14.5046 14.4859 13.688C14.5081 12.8822 13.8449 12.1903 13.0298 12.1695C12.2239 12.1487 11.5306 12.8119 11.5091 13.6235C11.4883 14.4343 12.14 15.1126 12.9652 15.1377Z" fill="url(#paint1_linear_159_35)"/>
<defs>
<linearGradient id="paint0_linear_159_35" x1="26" y1="9.70616" x2="-1.04" y2="9.70616" gradientUnits="userSpaceOnUse">
<stop stop-color="#59B300"/>
<stop offset="1" stop-color="#61C202"/>
</linearGradient>
<linearGradient id="paint1_linear_159_35" x1="26" y1="9.70616" x2="-1.04" y2="9.70616" gradientUnits="userSpaceOnUse">
<stop stop-color="#59B300"/>
<stop offset="1" stop-color="#61C202"/>
</linearGradient>
</defs>
</svg>
