<svg width="26" height="23" viewBox="0 0 26 23" fill="none" xmlns="http://www.w3.org/2000/svg">
<path fill-rule="evenodd" clip-rule="evenodd" d="M0.0712736 19.9141C0.0485309 20.0666 0.0257881 20.2192 0.000647942 20.3712L0.000583148 21.2657C0.000518354 21.679 0.000388765 22.0922 0 22.5054C0.0411443 22.5476 0.0801504 22.5955 0.119157 22.6434C0.205462 22.7494 0.291963 22.8556 0.402048 22.9006C0.770986 23.0523 1.1107 22.7612 1.12327 22.3184C1.1304 22.0692 1.13059 21.8192 1.13079 21.5693C1.13118 21.0722 1.13157 20.5752 1.18632 20.0841C1.41323 18.0437 2.3116 16.3284 3.80646 14.9804C6.15519 12.8611 8.92197 12.151 11.9747 12.6999C14.2551 13.1093 16.1527 14.254 17.5879 16.1434C18.3257 17.1147 18.812 18.2097 19.0568 19.4183C19.206 20.1544 19.2084 20.8973 19.2108 21.6407C19.2114 21.8068 19.2119 21.9728 19.2141 22.1388C19.2161 22.3 19.2307 22.4721 19.2871 22.6197C19.3806 22.8639 19.6347 22.972 19.8975 22.921C20.1616 22.87 20.334 22.6517 20.344 22.3102C20.3566 21.8858 20.3539 21.4607 20.3467 21.0357C20.3321 20.1746 20.2525 19.3197 20.0016 18.4953C19.0781 15.4565 17.0982 13.4174 14.2731 12.1945C13.9933 12.0735 13.7049 11.9732 13.414 11.872C13.2798 11.8253 13.1451 11.7785 13.0104 11.7293C16.6862 9.39644 16.2449 5.02042 14.4761 2.9664C12.3509 0.498854 8.84765 0.300939 6.54804 2.29169C5.32654 3.34863 4.63052 4.71027 4.54363 6.34941C4.41955 8.69726 5.44796 10.4507 7.35349 11.7348C7.31682 11.7481 7.28462 11.7602 7.25527 11.7713C7.19902 11.7926 7.15309 11.81 7.10598 11.8239C5.93955 12.1626 4.86339 12.6965 3.88739 13.431C2.0449 14.8178 0.774939 16.6141 0.246153 18.9177C0.170992 19.2455 0.121165 19.5798 0.0712736 19.9141ZM10.1156 11.3607C7.61889 11.3035 5.6012 9.19443 5.65096 6.69289C5.70273 4.08659 7.74828 2.04549 10.2556 2.09854C12.7477 2.1516 14.7474 4.26546 14.6877 6.78402C14.6261 9.36718 12.5779 11.4171 10.1156 11.3607Z" fill="url(#paint0_linear_155_1009)"/>
<path d="M21.2675 12.0105C21.0599 11.9085 20.8517 11.8063 20.6466 11.698C20.636 11.7137 20.6426 11.6967 20.6559 11.6885C20.6999 11.6524 20.7446 11.6175 20.7892 11.5826C20.8118 11.5649 20.8344 11.5472 20.8569 11.5293C21.6803 10.8717 22.2317 10.0228 22.4712 8.98563C23.0604 6.43443 21.5695 3.97301 19.0801 3.3704C18.7696 3.29558 18.4444 3.26906 18.1247 3.2575C17.7896 3.24525 17.5448 3.48874 17.5249 3.8023C17.5056 4.107 17.7359 4.36205 18.0709 4.40149C18.1402 4.40952 18.2098 4.41518 18.2795 4.42085C18.3278 4.42478 18.3762 4.42872 18.4246 4.43345C20.0919 4.59533 21.4116 6.02771 21.4733 7.74302C21.543 9.67257 20.1152 11.2485 18.1964 11.36C17.7684 11.3845 17.5215 11.5987 17.5235 11.9429C17.5255 12.2891 17.771 12.4979 18.2016 12.521C18.2184 12.5217 18.2351 12.5225 18.2518 12.5234C18.2689 12.5242 18.286 12.5251 18.3031 12.5257C19.5426 12.5754 20.7083 12.8958 21.7699 13.5609C23.3463 14.5492 24.4027 15.9441 24.7443 17.824C24.8337 18.3183 24.8433 18.8278 24.8527 19.337C24.8567 19.5495 24.8606 19.762 24.8704 19.9733C24.8883 20.3637 25.0953 20.6174 25.4197 20.6269C25.7502 20.6364 25.9884 20.3705 25.9957 19.9726C26.0017 19.6604 26.001 19.3482 25.9963 19.0361C25.9585 16.3053 24.7728 14.2166 22.5754 12.7291C22.1651 12.4513 21.7174 12.2315 21.2675 12.0105Z" fill="url(#paint1_linear_155_1009)"/>
<defs>
<linearGradient id="paint0_linear_155_1009" x1="26" y1="11.0612" x2="-1.04" y2="11.0612" gradientUnits="userSpaceOnUse">
<stop stop-color="#59B300"/>
<stop offset="1" stop-color="#61C202"/>
</linearGradient>
<linearGradient id="paint1_linear_155_1009" x1="26" y1="11.0612" x2="-1.04" y2="11.0612" gradientUnits="userSpaceOnUse">
<stop stop-color="#59B300"/>
<stop offset="1" stop-color="#61C202"/>
</linearGradient>
</defs>
</svg>
