<svg width="34" height="36" viewBox="0 0 34 36" fill="none" xmlns="http://www.w3.org/2000/svg">
<path fill-rule="evenodd" clip-rule="evenodd" d="M26.8936 8.83271C26.5938 6.07747 25.2263 3.64559 23.0426 1.98503C21.3292 0.682637 19.2959 0 17.1908 0C16.6608 0 16.1264 0.0426651 15.5908 0.13024C11.4737 0.80277 8.7948 3.14259 7.6305 7.08234C6.48978 10.9412 7.46209 14.3679 10.5216 17.268C10.6344 17.3754 10.7543 17.4776 10.8913 17.5944L10.9101 17.6104C10.9362 17.6329 10.9629 17.6556 10.9902 17.6788C11.0378 17.7194 11.0874 17.7616 11.138 17.8058L11.7173 18.3099L10.8304 18.6254C10.7271 18.6636 10.6395 18.695 10.5508 18.7242C4.25775 20.808 0.11703 26.4398 0.00026301 33.0696C-0.0109645 33.6815 0.33821 34.1037 0.86815 34.1205C1.40483 34.1362 1.75512 33.7635 1.80003 33.1213L1.80115 33.1011C1.8528 32.3544 1.9067 31.582 2.03132 30.8219C2.51186 27.8892 4.07586 25.1407 6.43476 23.085C8.79479 21.0292 11.7308 19.857 14.7027 19.7829C15.3618 19.7661 16.0298 19.7672 16.6754 19.7683C17.3266 19.7695 18.0003 19.765 18.6593 19.7526C19.129 19.7439 19.335 19.6418 19.6865 19.4676C19.7862 19.4182 19.8977 19.3629 20.0302 19.3024C24.3056 17.3477 27.4 13.4854 26.8936 8.83271ZM22.8057 15.5749C21.2843 17.0962 19.2465 17.9338 17.065 17.9338H17.0594C15.9692 17.9326 14.9161 17.7227 13.9471 17.323C12.9771 16.9233 12.0923 16.3338 11.3367 15.5737C9.82661 14.0535 8.99576 12.0101 8.99801 9.81962C8.99913 7.68301 9.84457 5.66767 11.3783 4.14409C12.9232 2.61041 14.9655 1.76722 17.129 1.7863C19.2577 1.79978 21.2686 2.6497 22.7933 4.18002C24.318 5.71033 25.1578 7.72343 25.1589 9.84768C25.1601 12.0225 24.3247 14.0569 22.8057 15.5749Z" fill="#1D1D1F"/>
<path d="M25.3637 27.0689L25.342 27.0909C25.33 27.0796 25.3185 27.0688 25.3075 27.0585C25.2624 27.0162 25.2242 26.9804 25.1882 26.9416C25.0057 26.7588 24.8232 26.5758 24.6407 26.3928C24.2752 26.0263 23.9095 25.6596 23.5433 25.2934C23.275 25.0273 22.9157 25.0093 22.6777 25.2485C22.4397 25.4876 22.4576 25.8469 22.7249 26.1141C22.9994 26.3887 23.2743 26.6628 23.5492 26.9368C23.8239 27.2107 24.0986 27.4845 24.3731 27.759C24.4003 27.7862 24.4264 27.8142 24.4538 27.8438C24.4727 27.8641 24.4923 27.8852 24.5134 27.9072C24.4942 27.9272 24.4761 27.9465 24.4585 27.9652C24.4289 27.9967 24.4009 28.0265 24.3719 28.0554C24.1893 28.2376 24.0065 28.4199 23.8237 28.6022C23.457 28.9679 23.0901 29.3338 22.7237 29.7002C22.4543 29.9686 22.4374 30.3245 22.6777 30.5647C22.918 30.805 23.2728 30.787 23.5422 30.5187L23.5439 30.517C23.9902 30.0707 24.4365 29.6244 24.8806 29.1759C24.9798 29.0759 25.077 28.9733 25.1763 28.8686C25.2241 28.8181 25.2725 28.7671 25.3218 28.7156C25.3451 28.7377 25.3662 28.7575 25.3857 28.7758C25.4224 28.8102 25.4534 28.8393 25.4835 28.8694C25.7033 29.0897 25.9228 29.31 26.1422 29.5302C26.4708 29.8599 26.7991 30.1895 27.1283 30.5187C27.3966 30.787 27.7526 30.805 27.9928 30.5647C28.232 30.3256 28.2151 29.9686 27.9468 29.7002C27.6423 29.3951 27.3368 29.0907 27.0312 28.7862C26.7869 28.5428 26.5425 28.2993 26.2986 28.0554C26.2737 28.0299 26.2492 28.0037 26.2235 27.9763C26.2028 27.9542 26.1813 27.9312 26.1582 27.9072C26.1774 27.8871 26.1956 27.8679 26.2131 27.8492C26.2428 27.8177 26.2708 27.7879 26.2997 27.759C26.4825 27.5766 26.6653 27.3942 26.8482 27.2118C27.2148 26.8462 27.5816 26.4804 27.9479 26.1141C28.2162 25.8458 28.2331 25.4899 27.9928 25.2496C27.7526 25.0093 27.3978 25.0273 27.1283 25.2956C26.6658 25.7582 26.2044 26.2218 25.743 26.6855L25.7395 26.689C25.615 26.8134 25.4926 26.9378 25.3637 27.0689Z" fill="#1D1D1F"/>
<path fill-rule="evenodd" clip-rule="evenodd" d="M25.3415 36C20.8741 36.0045 17.242 32.3724 17.2453 27.9038C17.2476 23.4397 20.8673 19.8189 25.3314 19.8155C29.8 19.811 33.431 23.442 33.4276 27.9117C33.4242 32.3757 29.8056 35.9966 25.3415 36ZM18.4096 27.9072C18.4164 31.7358 21.5298 34.8436 25.3561 34.8402C29.1768 34.8368 32.2734 31.7346 32.279 27.9061C32.2846 24.0516 29.1735 20.9629 25.2921 20.9686C21.5107 20.9742 18.4029 24.1067 18.4096 27.9072Z" fill="#1D1D1F"/>
</svg>
