<svg width="26" height="26" viewBox="0 0 26 26" fill="none" xmlns="http://www.w3.org/2000/svg">
<path d="M19.4236 6.37932C19.2071 4.38938 18.2194 2.63298 16.6422 1.43367C15.4048 0.493027 13.9363 0 12.4158 0C12.0331 0 11.6471 0.0308144 11.2603 0.0940643C8.28674 0.579791 6.35194 2.2697 5.51104 5.11514C4.68717 7.90219 5.38941 10.377 7.5991 12.4716C7.68425 12.5527 7.77507 12.6297 7.87967 12.7189C7.93157 12.7635 7.98671 12.8097 8.04428 12.86L8.46271 13.2241L7.8221 13.452C7.7475 13.4795 7.68425 13.5022 7.62019 13.5233C3.07511 15.0283 0.0845232 19.0958 0.000189952 23.8841C-0.00791901 24.3261 0.244273 24.631 0.627016 24.6431C1.01462 24.6545 1.26762 24.3853 1.30006 23.9214L1.30087 23.9068C1.33817 23.3676 1.37709 22.8097 1.4671 22.2607C1.81417 20.1427 2.94374 18.1576 4.64744 16.6728C6.35194 15.1881 8.47244 14.3415 10.6189 14.288C11.0949 14.2758 11.5774 14.2766 12.0436 14.2775C12.5139 14.2783 13.0005 14.275 13.4765 14.2661C13.9119 14.258 14.0336 14.1388 14.4666 13.9409C17.5545 12.5292 19.7893 9.73968 19.4236 6.37932ZM16.4711 11.2488C15.3724 12.3475 13.9006 12.9524 12.325 12.9524H12.3209C11.5336 12.9516 10.7729 12.8 10.0731 12.5113C9.37253 12.2226 8.73355 11.7969 8.18781 11.2479C7.09716 10.15 6.49709 8.67416 6.49871 7.0921C6.49953 5.54897 7.11013 4.0934 8.21782 2.99302C9.33361 1.88533 10.8086 1.27635 12.3712 1.29014C13.9087 1.29987 15.361 1.91372 16.4622 3.01897C17.5634 4.12422 18.17 5.57816 18.1708 7.11237C18.1716 8.68308 17.5683 10.1524 16.4711 11.2488Z" fill="url(#paint0_linear_187_304)"/>
<path d="M25.7616 15.4541C24.5387 16.8488 23.3175 18.2452 22.0963 19.6407L16.9901 25.4735C16.9763 25.4905 16.9617 25.5067 16.9479 25.5238C16.9358 25.5384 16.9236 25.5522 16.9114 25.5668C16.6576 25.8571 16.4606 25.9949 16.2911 26.0006C16.1224 26.0046 15.9108 25.8798 15.6318 25.6008C15.2061 25.1751 14.7812 24.7486 14.3563 24.3228C13.1837 23.1454 11.9715 21.9291 10.7608 20.7484C10.6554 20.6454 10.597 20.493 10.597 20.3194C10.597 20.1378 10.6651 19.9586 10.7754 19.8524C10.8946 19.7364 11.0722 19.6667 11.2498 19.6667C11.4046 19.6667 11.5595 19.7194 11.6771 19.841C12.5958 20.7873 13.5454 21.732 14.4641 22.6467C14.8672 23.0473 15.2702 23.4479 15.6716 23.8501C15.7105 23.889 15.7486 23.9385 15.7973 24.0017C15.8248 24.0374 15.8556 24.0763 15.8897 24.1185L16.1013 24.3796L20.5459 19.3082C21.9414 17.7165 23.337 16.1247 24.7317 14.5321C24.975 14.2539 25.2166 14.172 25.515 14.2669C25.7997 14.3561 25.9513 14.5426 25.9943 14.8516C26.0219 15.0535 25.9505 15.2392 25.7616 15.4541Z" fill="url(#paint1_linear_187_304)"/>
<defs>
<linearGradient id="paint0_linear_187_304" x1="26" y1="11.9603" x2="-1.04" y2="11.9603" gradientUnits="userSpaceOnUse">
<stop stop-color="#59B300"/>
<stop offset="1" stop-color="#61C202"/>
</linearGradient>
<linearGradient id="paint1_linear_187_304" x1="26" y1="11.9603" x2="-1.04" y2="11.9603" gradientUnits="userSpaceOnUse">
<stop stop-color="#59B300"/>
<stop offset="1" stop-color="#61C202"/>
</linearGradient>
</defs>
</svg>
