<svg width="100" height="100" viewBox="0 0 100 100" fill="none" xmlns="http://www.w3.org/2000/svg">
<path fill-rule="evenodd" clip-rule="evenodd" d="M52.9297 0C53.5398 0.0806957 54.1513 0.155143 54.7628 0.229598C56.0853 0.390616 57.4081 0.551671 58.7187 0.776044C66.7266 2.13802 73.9271 5.35938 80.3776 10.2813C81.474 11.1172 81.7187 12.1979 81.0469 13.1536C80.3698 14.1146 79.1537 14.2422 78.0417 13.3984C72.9245 9.51042 67.2734 6.74219 61.0234 5.22656C36.4375 -0.729165 11.526 13.9688 5.43229 38.5208C1.10156 55.9714 5.72395 71.1875 18.6458 83.7891C18.7912 83.9307 18.9482 84.0594 19.0793 84.1668C19.1338 84.2114 19.1838 84.2524 19.2266 84.2891C24.388 68.2187 34.9844 59.2708 52.2266 59.9323C65.7292 60.4505 77.388 70.4219 80.5781 84.4167C80.6655 84.348 80.75 84.2849 80.8314 84.2242C80.988 84.1073 81.1328 83.9992 81.263 83.8776C90.0156 75.6693 94.9661 65.6016 95.9271 53.6276C96.7005 43.9714 94.5833 34.9583 89.7135 26.5885C89.6146 26.4193 89.5182 26.25 89.4323 26.0755C88.9193 25.0365 89.1823 23.9792 90.0885 23.4297C91.0312 22.8568 92.2292 23.0859 92.776 24.1406C92.9232 24.4243 93.0709 24.7079 93.2185 24.9916L93.2186 24.9917C94.435 27.3285 95.6554 29.6728 96.6563 32.1042C98.5 36.5807 99.4844 41.2891 99.8359 46.1224C99.848 46.292 99.8924 46.4582 99.9368 46.6247L99.9369 46.625C99.9593 46.7089 99.9817 46.793 100 46.8776V53.1276C99.976 53.3178 99.9514 53.508 99.9267 53.6982L99.9259 53.7043C99.8678 54.1527 99.8096 54.6011 99.7604 55.0495C98.612 65.5703 94.651 74.8906 87.6693 82.8516C79.9141 91.6979 70.2161 97.1849 58.612 99.2422C57.3785 99.4613 56.1342 99.6169 54.8904 99.7724L54.8901 99.7724C54.3012 99.8461 53.7124 99.9197 53.125 100H46.875C46.7939 99.9823 46.713 99.9612 46.6322 99.9402C46.4639 99.8964 46.2956 99.8526 46.125 99.8385C37.625 99.1771 29.7604 96.5859 22.6719 91.849C10.7214 83.8594 3.37239 72.7813 0.763019 58.6172C0.534502 57.3728 0.378196 56.1138 0.221942 54.8552C0.150272 54.2779 0.0786121 53.7007 0 53.125V46.875C0.0991538 46.1834 0.190697 45.4905 0.282231 44.7976C0.483988 43.2705 0.685696 41.7437 0.968742 40.2318C4.70312 20.2891 21.2812 4.07032 41.2864 0.768232C42.565 0.556338 43.8522 0.391496 45.1387 0.226746C45.7179 0.152574 46.297 0.0784201 46.875 0H52.9297ZM49.8229 96.1042C59.0938 96.0391 67.5026 93.6172 75.151 88.6406C76.1804 87.9704 76.6973 87.6338 76.8862 87.165C77.0768 86.6921 76.9335 86.0847 76.6458 84.8646C72.8333 68.7214 56.1224 59.6042 40.5703 65.3698C30.8958 68.9583 25.1693 76.0833 23.0651 86.1641C22.901 86.9505 23.0521 87.4375 23.7656 87.9271C31.6719 93.3464 40.4219 96.0208 49.8229 96.1042ZM50.0402 20.3704C59.7286 20.3861 67.608 28.302 67.5924 38.0034C67.5768 47.6891 59.6556 55.5712 49.9594 55.5556C40.2737 55.5399 32.3916 47.6188 32.4072 37.92C32.4203 28.2368 40.3388 20.3548 50.0402 20.3704ZM49.9855 51.6484C57.5131 51.6536 63.667 45.5205 63.6826 38.0008C63.6957 30.468 57.5756 24.3036 50.0611 24.2828C42.4814 24.2619 36.3144 30.4054 36.317 37.9773C36.3196 45.4997 42.4631 51.6432 49.9855 51.6484ZM86.0751 20.37C87.0983 20.3948 87.9678 19.3228 87.9629 18.0401C87.9579 16.8039 87.1379 15.766 86.1445 15.7412C85.1189 15.7164 84.2518 16.7853 84.2593 18.068C84.2667 19.3073 85.0842 20.3452 86.0751 20.37Z" fill="url(#paint0_linear_766_3336)"/>
<defs>
<linearGradient id="paint0_linear_766_3336" x1="100" y1="46" x2="-4" y2="46" gradientUnits="userSpaceOnUse">
<stop stop-color="#59B300"/>
<stop offset="1" stop-color="#61C202"/>
</linearGradient>
</defs>
</svg>
