<?xml version="1.0" encoding="UTF-8" standalone="no"?>
<svg
   width="36"
   height="36"
   viewBox="0 0 36 36"
   fill="none"
   version="1.1"
   id="svg13"
   sodipodi:docname="user-correct.svg"
   inkscape:version="1.1.1 (c3084ef, 2021-09-22)"
   xmlns:inkscape="http://www.inkscape.org/namespaces/inkscape"
   xmlns:sodipodi="http://sodipodi.sourceforge.net/DTD/sodipodi-0.dtd"
   xmlns="http://www.w3.org/2000/svg"
   xmlns:svg="http://www.w3.org/2000/svg">
  <defs
     id="defs17" />
  <sodipodi:namedview
     id="namedview15"
     pagecolor="#505050"
     bordercolor="#ffffff"
     borderopacity="1"
     inkscape:pageshadow="0"
     inkscape:pageopacity="0"
     inkscape:pagecheckerboard="1"
     showgrid="false"
     inkscape:zoom="19.972222"
     inkscape:cx="17.94993"
     inkscape:cy="18"
     inkscape:window-width="1312"
     inkscape:window-height="969"
     inkscape:window-x="862"
     inkscape:window-y="214"
     inkscape:window-maximized="0"
     inkscape:current-layer="svg13" />
  <path
     fill-rule="evenodd"
     clip-rule="evenodd"
     d="M23.0425 1.98472C25.2263 3.64527 26.5938 6.07715 26.8935 8.83239C27.3999 13.4851 24.3056 17.3473 20.0302 19.302C19.8976 19.3626 19.7862 19.4178 19.6865 19.4672C19.3349 19.6414 19.1289 19.7435 18.6593 19.7523C18.0002 19.7646 17.3266 19.7691 16.6754 19.768C16.0298 19.7669 15.3618 19.7657 14.7027 19.7826C11.7308 19.8567 8.79478 21.0288 6.43475 23.0846C4.07585 25.1404 2.51186 27.8889 2.03132 30.8215C1.9067 31.5816 1.85281 32.354 1.80116 33.1007L1.80004 33.1209C1.75513 33.7631 1.40483 34.1358 0.868155 34.1201C0.338216 34.1033 -0.0109645 33.6811 0.000263005 33.0692C0.117029 26.4394 4.25774 20.8077 10.5508 18.7238C10.6395 18.6946 10.727 18.6632 10.8303 18.625L11.7173 18.3095L11.138 17.8054C11.0873 17.7612 11.038 17.7192 10.9904 17.6787C10.9631 17.6554 10.9363 17.6326 10.91 17.6101L10.8911 17.5939C10.7542 17.4772 10.6343 17.375 10.5216 17.2676C7.46207 14.3675 6.48977 10.9409 7.63049 7.08202C8.79478 3.14228 11.4737 0.802463 15.5908 0.129934C16.1264 0.0423598 16.6608 -0.000305176 17.1907 -0.000305176C19.2959 -0.000305176 21.3292 0.68233 23.0425 1.98472ZM17.065 17.9334C19.2465 17.9334 21.2843 17.0958 22.8056 15.5745C24.3247 14.0566 25.16 12.0221 25.1589 9.84735C25.1578 7.72311 24.3179 5.71001 22.7933 4.1797C21.2686 2.64939 19.2577 1.79947 17.129 1.78599C14.9654 1.76691 12.9231 2.61009 11.3782 4.14377C9.84455 5.66735 8.99912 7.68269 8.998 9.81928C8.99575 12.0098 9.82659 14.0532 11.3367 15.5734C12.0923 16.3335 12.977 16.9229 13.9471 17.3226C14.916 17.7223 15.9692 17.9323 17.0594 17.9334H17.065Z"
     fill="#1D1D1F"
     id="path9"
     style="fill:#68b732;fill-opacity:1" />
  <path
     d="M31.5476 26.1035C32.9206 24.5344 34.2938 22.965 35.6685 21.397C35.9301 21.0995 36.0289 20.8424 35.9907 20.5628C35.9312 20.1351 35.7212 19.8768 35.3271 19.7533C34.914 19.622 34.5794 19.7354 34.2426 20.1205C32.316 22.3203 30.3883 24.5191 28.4606 26.7178L22.2931 33.7552L22.0001 33.3937C21.9529 33.3353 21.9103 33.2814 21.8721 33.232C21.8047 33.1444 21.7519 33.0759 21.6981 33.022C21.1432 32.4661 20.5862 31.9124 20.0291 31.3587L19.9484 31.2783C18.7006 30.0361 17.4135 28.7547 16.1674 27.4711C16.0046 27.3027 15.7901 27.2297 15.5757 27.2297C15.3298 27.2297 15.0839 27.3263 14.9189 27.4869C14.7662 27.6339 14.6719 27.8821 14.6719 28.1336C14.6719 28.3738 14.7527 28.5849 14.8987 28.7275C16.5749 30.3622 18.2535 32.0463 19.877 33.6766C20.0732 33.8732 20.2695 34.07 20.4658 34.2668C20.858 34.66 21.2502 35.0532 21.643 35.446C22.0293 35.8323 22.3223 36.0052 22.5558 35.9996C22.7905 35.9917 23.0633 35.8008 23.4147 35.3989C23.4232 35.3888 23.4316 35.379 23.44 35.3692C23.4484 35.3593 23.4568 35.3495 23.4653 35.3394C23.4748 35.3276 23.4846 35.3161 23.4945 35.3046C23.5043 35.2931 23.5141 35.2816 23.5237 35.2698L30.5936 27.1938C30.9116 26.8304 31.2296 26.467 31.5476 26.1035Z"
     fill="#1D1D1F"
     id="path11"
     style="fill:#68b732;fill-opacity:1" />
</svg>
